<?xml version="1.0" encoding="utf-8"?>
<!-- Generator: Adobe Illustrator 19.0.0, SVG Export Plug-In . SVG Version: 6.00 Build 0)  -->
<svg version="1.1" id="Layer_1" xmlns="http://www.w3.org/2000/svg" xmlns:xlink="http://www.w3.org/1999/xlink" x="0px" y="0px"
	 viewBox="122 -122 500 500" style="enable-background:new 122 -122 500 500;" xml:space="preserve">
<style type="text/css">
	.st0{fill:#008F16;}
</style>
<path id="XMLID_26_" class="st0" d="M366.7,75.2c-1.9-4.3-3.5-7.9-5.1-11.4c-8.3-17.3-18.2-33.6-30.1-48.6
	c-4.7-6-7.7-12.9-10.1-20.1c-2.3-7.1,4.5-17.2,12.1-18.4c3.9-0.6,7.6-1,11.2-3c4.5-2.5,8.9-0.2,11.4,4.5
	c11.3,21.1,22.6,42.2,33.9,63.4c0.1,0.1,0.3,0.2,0.7,0.6c0.1-1.3,0.2-2.3,0.2-3.3c-0.3-23.9,7.7-45.2,20.8-64.7
	c7.8-11.6,17.4-21.4,30-27.9c4.9-2.5,9.9-4.6,15.8-5.2c0.4,3.5,1,7,1.2,10.4c0.4,8.2,1.1,16.4,1,24.6c-0.2,12.8-1.9,25.4-6.3,37.5
	c-5.8,16.1-17,27.7-30.9,37.1c-6.5,4.4-13,8.7-19.4,13c-2.7,1.8-2.7,2.4-0.6,5.2c4.6-1.7,9.2-3.4,13.9-5.1c9.7-3.5,19.7-5.6,30-6.6
	c14.9-1.4,29.4,0.2,43.5,5c21.1,7.2,37.8,20.4,51.2,38c11.8,15.5,19.2,33.1,24.2,51.8c2,7.5,3.6,15.1,5.2,22.7
	c1.7,7.6-1.3,13.6-6.6,18.7c-8.8,8.6-19.1,15-30.2,20.2c-19.9,9.3-41,14.1-62.6,17.3c-9.9,1.5-19.9,2.3-29.8,3.1
	c-4.4,0.4-8.9,0.3-13.3-0.2c-9.9-1-17.1,2.9-22.4,11c-4.1,6.3-7.9,12.8-12.1,19.1c-3.9,5.7-8.4,10.9-14.7,14.1
	c-5.4,2.8-11.2,3.7-17.2,2.3c-6.6-1.5-11-6.7-11.3-13.5c-0.2-5.2,1.6-9.9,4.1-14.4c1.4-2.6,2.5-5.4,4-8.7c-2.5,0.3-4.1,0.5-5.7,0.6
	c-8.4,0.7-15.8-1.9-22.4-7.1c-1.4-1.1-2.2-1.2-3.6,0c-4.5,4-9.6,7-15.8,7c-8.6,0.1-14.4-4.6-19.2-11.1c-5.3-7.1-7.7-15.2-7.5-24
	c0-0.7,0-1.4,0-2.1c0-0.2-0.1-0.5-0.3-1c-2,0.4-3.9,0.8-5.9,1.2c-16.1,2.6-32.2,3-48.4,2.6c-11.5-0.3-22.8-2-33.5-6.9
	c-7.2-3.3-13.3-7.9-17.6-14.6c-5-7.8-6.7-16.4-4.5-25.4c4.9-20.4,12-40,23.8-57.5c11.3-16.7,25.7-30,43.9-38.8
	c10.9-5.2,22.4-8.4,34.5-9.5c18.6-1.8,36.5,1.3,53.8,7.9c10,3.8,20,7.7,30.6,9.4C362.3,74.8,364.1,74.9,366.7,75.2z M366.1,231.7
	c0.9,8.7,0.6,17-4.2,24.7c-1.4,2.2-2.4,4.8-3.1,7.3c-1.3,5.3,1.6,9.1,7.1,9c2.4,0,5-0.4,7.3-1.2c6.3-2.4,10.4-7.5,14-12.8
	c3.4-5,6.5-10.3,9.6-15.5c7.6-12.7,18.2-19.2,33.5-17.5c6.1,0.7,12.3,0.3,18.5-0.2c16.2-1.3,32.1-4,47.9-7.8
	c19.6-4.7,38.2-11.6,54.4-24c3.9-3,7.6-6.7,10.6-10.7c3.1-4,1-8.2-1.6-11.9c-2.4-3.4-6.1-3.9-9.7-2.5c-3.5,1.3-6.8,3.1-10,5.2
	c-5.9,3.9-11.4,8.5-17.5,12.2c-14.4,8.7-30.3,13.4-46.8,16.3c-16.7,2.9-33.5,4.1-50.4,2.1c-6.5-0.8-8.2-2.3-9.3-8.9
	c-0.9-5.7-1-11.6-1.7-17.4c-1.5-12.2-3-24.5-4.6-36.7c-1.2-9.3-2.3-18.7-3.9-28C402,89,393.3,66,382.1,44
	c-8.5-16.6-17.8-32.8-26.7-49.3c-2.5-4.6-4.8-9.2-6.8-13.3c-4.3,0.9-8.3,1.8-12.3,2.7c-0.4,0.1-0.8,0.1-1.3,0.3
	c-3.5,1-6.5,5.7-5.4,8.8c2.2,6.6,5.2,12.6,9.5,18.1c19.8,25.6,34.3,54,44.1,84.8c6.8,21.3,11.1,43.1,13,65.3
	c1.4,16.3,1.3,32.5-2.1,48.6c-1.8,8.5-4,16.9-8.8,24.2c-1.2,1.9-2.9,3.5-4.8,5.7c-0.1-1-0.1-1.2-0.1-1.4c6.8-17.9,6.3-36.3,3.2-54.7
	c-1.7-10.1-4.6-20-6.9-30c-2.7-11.7-6.9-22.8-12.4-33.4c-2.2-4.2-4.9-8.3-8-11.9c-3.5-4.1-6.9-3.1-8.8,2c-1.3,3.4,0.3,6.4,1.4,9.4
	c2,5.3,4.2,10.5,6,15.8c2.1,6.1,3.2,12.4,2,18.9c-0.4,1.9-1.2,3.1-2.8,4.3c-2.9,2.1-6,4.3-8,7.1c-3.8,5.1-7.1,10.6-10.4,16.2
	c-2.8,4.8-5.1,9.9-7.7,14.8c-1.8,3.5-4.6,5.9-8.5,6.8c-4.4,1-6.2-0.5-5.5-5.1c0.1-0.3,0.1-0.7,0.2-1c2.6-6.6,5-13.3,7.7-19.8
	c4.2-10.2,8.6-20.3,12.6-30.6c1.1-3,1.2-6.5,1.2-9.8c0-2.8-2-4.4-4.7-5c-2.6-0.6-5,0.3-6.2,2.9c-1.4,3.1-2.6,6.3-3.3,9.6
	c-1.6,6.9-4.1,13.4-8.5,19.1c-7.5,9.5-17.4,15-29,17.6c-19.4,4.5-39,6.3-58.9,5.5c-6-0.2-12-0.9-17.4-3.8c-5.6-2.9-7.9-7.6-6.3-13.6
	c0.7-2.8,1.9-5.6,3.6-7.8c11.7-15.2,26.9-23.8,46.4-23.9c6.4,0,9.7-3.4,9.1-9.9c-0.6-6.2-3.9-8.6-9.6-8c-11.1,1.1-21.9,3-32.3,7.1
	c-13.3,5.2-24.3,13.3-32.1,25.4c-8.3,12.9-6.9,28.2,4.7,37.5c2.2,1.8,4.6,3.3,7.1,4.6c9.9,4.9,20.6,6.4,31.4,6.7
	c9.1,0.2,18.2-0.1,27.2-0.4c12.3-0.5,24.4-2.2,36-6.7c0.6-0.2,1.2-0.3,2.1-0.6c-0.4,1.4-0.8,2.3-1,3.3c-3,11.9-2.5,23.1,5.9,32.9
	c5.8,6.8,12.1,7.7,19.4,2.6c0.9-0.6,1.8-1.3,2.6-2.1c2.5-2.6,4.9-5.2,7.3-7.9C340,237.9,346.9,239.5,366.1,231.7z M248.2,116.9
	c13.7-0.7,27.4-1.9,40.8-6c5.5-1.7,9.1-4.5,10.1-10.5c0.3-2-0.1-3.3-1.6-4.1c-1.2-0.6-2.6-1-3.9-0.8c-16.2,1.4-32.4,2.8-48.5,4.5
	c-3.7,0.4-7.3,1.7-10.7,3.2c-3.6,1.6-5.2,5.9-4.3,9.3c0.7,2.6,3.5,4.3,7.7,4.4C241.1,117,244.5,116.9,248.2,116.9z M445.7,137.4
	c-0.4-6.9-2.7-12.9-6-18.4c-1.5-2.5-3.5-5-5.7-6.8c-3.6-2.9-8.2-2.2-10.3,1.9c-4.6,8.6-4.7,17.6-0.5,26.4c1.4,3.1,4.1,4.7,7.7,4.5
	c1.8-0.1,3.5,0,5.3,0c0.2,0.3,0.3,0.5,0.5,0.8c-1.9,2.9-3.7,5.8-5.7,8.8c1.6,1.5,3.3,3.1,5.2,4.8c3.7-3.7,6.4-7.6,7.9-12.4
	c0.5-1.6,1.3-2.1,2.9-2.1c5.1,0.1,10.3,0,15.4,0c3.7,0,6.3-1.8,8.3-4.8c2.3-3.5,2.8-7.4,1.6-11.3c-1.8-5.9-4-11.6-6-17.5
	c-0.1-0.4-0.5-0.7-0.8-1.1c-2.2,1.1-4.4,2.1-6.5,3.1c0.3,1.1,0.6,1.9,0.8,2.7c1.6,4.5,3.2,9,4.7,13.6c1.3,3.9-0.5,7.6-3.8,7.8
	C455.7,137.6,450.8,137.4,445.7,137.4z M480.2,115.4c0.6,0.9,1,1.6,1.5,2.3c3.4,4.7,6.9,9.4,10.1,14.3c0.8,1.1,1.1,3,0.7,4.2
	c-0.2,0.7-2.2,1.2-3.4,1.3c-3,0.2-6,0-9,0.1c-0.7,0-1.9,0.8-2,1.3c-0.2,1.9-0.1,3.9-0.1,6c5.1,0,9.8,0,14.5,0c4.3,0,7.1-2.3,8.2-6.4
	c0.9-3.7,0.3-7.1-2-10.2c-3.5-4.7-6.9-9.4-10.4-14.1c-0.8-1.1-1.6-2.1-2.6-3.4C483.8,112.4,482.1,113.8,480.2,115.4z M508.4,144.8
	c1.5,0,2.6,0,3.7,0c3.5,0,3.7,0,3.6-3.4c-0.2-6.8-0.4-13.7-1.2-20.5c-0.9-8.1-2.5-16.1-3.9-24.1c-0.1-0.7-1.2-1.7-1.8-1.7
	c-2,0.2-4,0.8-6.2,1.2C506.6,112.3,508.5,128.2,508.4,144.8z M522,155.1c1.3,1.1,2.7,2.2,4.1,3.4c1,0.9,1.7,0.6,2.5-0.3
	c4.5-5.3,7.2-11.3,7.6-18.4c0.6-10.6-3.9-19.8-7.4-29.3c0-0.1-0.3-0.1-0.6-0.3c-1.4,0.7-2.9,1.5-4.5,2.2c-1.3,0.6-1.5,1.3-1,2.6
	c1.5,3.8,2.8,7.7,4.2,11.6c2.3,6.2,2.8,12.5,0.2,18.8C525.8,148.5,523.9,151.6,522,155.1z M473.3,158.6c0.1-2,0.1-4,0.4-5.9
	c0.3-1.8-0.4-2.4-2-2.4c-5.7,0-11.5-0.1-17.2,0c-0.6,0-1.8,1-1.8,1.5c0.1,2.3,0.6,4.5,1,6.8c0,0,0.5,0,0.7,0
	C460.6,158.6,466.8,158.6,473.3,158.6z"/>
</svg>
