<?xml version="1.0" encoding="utf-8"?>
<!-- Generator: Adobe Illustrator 19.0.0, SVG Export Plug-In . SVG Version: 6.00 Build 0)  -->
<svg version="1.1" id="Layer_1" xmlns="http://www.w3.org/2000/svg" xmlns:xlink="http://www.w3.org/1999/xlink" x="0px" y="0px"
	 viewBox="122 -122 500 500" style="enable-background:new 122 -122 500 500;" xml:space="preserve">
<g>
	<path d="M339.5,214.2c5.7-2.9,18.9-11,22-16L304.3,161c-7-4.6-54.8-35.1-56.1-37.9c-1.1-17,13.7-28.4,25.1-34.1
		c24-11.7,33.2-6.6,38.3-20.7c6.8-18.3,11.9-26.4,23.6-35.4c6.3-4.6,11.5-8.1,16.8-12.6c16.5-14.1,23.5-13.9,39.4-0.9
		c19.1,15.6,31.7,19.6,41.1,47.4c5.8,17.4,11.5,8.6,37.4,21.5c10.8,5.3,28.6,18.9,26.2,34.3c-4,5.5-42.9,30.2-52.2,36.3l-107.4,70.9
		c-6.8,4.4-22.3,13.6-26.2,18.7c-10.7,14.3-3.7,22.9,1.1,34.3c4.2-7.9,3.9-9.2,18.3-18l174.6-115.2c7.1-4.6,16.2-9.7,17.8-19.6
		c5.8-33.9-25.7-60.1-55.7-70.7c-21.5-7.7-8.1-10.8-24-30.1c-11.3-13.6-47.3-40.5-62.1-46.7c-14.9-6-31.9,9.9-49.1,21.8
		c-58.9,40.9-24.2,44.7-53.5,55.2c-25.1,8.9-48.5,25.3-54.6,55.5c-5,25.7,12.6,31.9,28,41.8C263.3,164.7,332.8,211.9,339.5,214.2
		L339.5,214.2z"/>
	<path d="M312.1,327c3.5-9.9,7.3-10.7,11.5-14.1C352.7,294,515.1,188.1,522.2,181c12.1-12.1,7.1-24.2,0-36.3
		c-2.6,5.8-0.5,7.1-11.3,14.1c-27.8,17.5-192.3,125.4-198.7,131.9C300.1,303,305.1,314.7,312.1,327L312.1,327z"/>
	<path d="M327,221.8l-95.6-65.6c-6.8-4.7-7-4.4-9.2-13c-24,31.9,13,46.4,36.1,62.1c11.7,8.2,22.2,15.4,34.1,23.5
		c7.7,5.2,9.5,9.9,17.2,5.3C314.4,231.2,324.3,225.2,327,221.8L327,221.8z"/>
	<path d="M274.7,44.7c5-12.5,0.5-8.4,19.1-23.8l22.7-20.7c6.4-7.1,16.7-12.3,21.5-22c6-12.8,0.8-25.9-7.7-32
		c-3.7,8.9-0.9,6.4-7.7,13.6c-5.5,5.3-6.3,6-11.5,10.2c-4.4,3.7-6.6,7-11,10.7c-9.4,7.9-29,23.3-33,32.4
		C260,28.5,268.9,36.9,274.7,44.7L274.7,44.7z"/>
	<path d="M268.4-3.2c5.8-10.1-2.4-4,12.1-15.6c5.8-5,10.1-7.7,15.2-12.6c13.7-13,9.9-26.4,0-39.6c-5.8,13,0.9,6-11.2,16
		c-4.4,3.7-10.8,8.2-15.6,12.3C251-27.5,265.9-8.4,268.4-3.2L268.4-3.2z"/>
</g>
</svg>
