<?xml version="1.0" encoding="utf-8"?>
<!-- Generator: Adobe Illustrator 19.0.0, SVG Export Plug-In . SVG Version: 6.00 Build 0)  -->
<svg version="1.1" id="Layer_1" xmlns="http://www.w3.org/2000/svg" xmlns:xlink="http://www.w3.org/1999/xlink" x="0px" y="0px"
	 viewBox="170 -169.3 595.3 595.3" style="enable-background:new 170 -169.3 595.3 595.3;" xml:space="preserve">
<style type="text/css">
	.st0{fill:#F9EB25;}
	.st1{fill:#D82928;}
	.st2{fill:#059147;}
</style>
<g>
	<path class="st0" d="M325.5,51.7c204.1-11.6,65.9,108.1-70.9,210.2C414.3,100.4,376.7,55.8,325.5,51.7L325.5,51.7z"/>
	<path class="st1" d="M388.4,51.7c204.1-11.6,65.9,108.1-70.7,210.2C477.4,100.4,439.6,55.8,388.4,51.7L388.4,51.7z"/>
	<path class="st2" d="M451.4,51.7c204.1-11.6,65.9,108.1-70.9,210.2C540.3,100.4,502.6,55.8,451.4,51.7L451.4,51.7z"/>
	<path d="M514.3,51.7c204.1-11.6,65.9,108.1-70.9,210.2C603.3,100.4,565.5,55.8,514.3,51.7L514.3,51.7z"/>
	<path d="M577.3,51.7c204.1-11.6,65.9,108.1-70.7,210.2C666.2,100.4,628.5,55.8,577.3,51.7L577.3,51.7z"/>
	<path d="M650.6,49.2c15,0,27.2-12.2,27.2-27.1c0-15-12.2-27.2-27.2-27.2c-14.9,0-27.1,12.2-27.1,27.2
		C623.5,37,635.7,49.2,650.6,49.2L650.6,49.2z"/>
</g>
</svg>
