<?xml version="1.0" encoding="utf-8"?>
<!-- Generator: Adobe Illustrator 19.0.0, SVG Export Plug-In . SVG Version: 6.00 Build 0)  -->
<svg version="1.1" id="Layer_1" xmlns="http://www.w3.org/2000/svg" xmlns:xlink="http://www.w3.org/1999/xlink" x="0px" y="0px"
	 viewBox="122 -122 500 500" style="enable-background:new 122 -122 500 500;" xml:space="preserve">
<g>
	<path d="M261.7,219.5c0.2,0-4.1,3.6-3.4,0c59.4-38.5,125.3-91,218.3-97.8c41.5-3,79.7,10.7,77.4,48.9
		c-1.5,23.9-17.6,45.1-31.8,60.2c-42.7,45.6-113.3,80.7-189.9,84.2c-48.5,2.2-87.7-9.9-112.5-34.1c-14.7-14.4-29.6-34.4-29.6-66
		c0-57.4,42.5-91.5,75-114.9c38.5-27.7,77.5-46.5,127.4-61.4c-2.3-11.4-10.2-17-18.2-22.7c7.6-3.8,12.3-22,19.4-22.7
		c6-0.7,15.7,14.5,15.9,21.6c0.3,11.7-9.1,16.1-13.7,22.7c7.4-2.1,18.1-6.8,27.3-3.4c3.1,4.2-0.4,9.7-1.1,13.7
		c21.3-1.8,26.4-19.8,26.2-43.2c-7.7,2.2-12.3,17.1-18.2,25c2.1-10,11.3-22.9,17-33c-0.9-23.6,3.4-42.1,12.5-55.8
		c3.3,7.7-2.8,25-1.1,38.6c6.5-4,13.1-14.3,23.8-14.8c8.7-0.4,16.1,8.9,26.2,9.1c9.7,0.2,11.6-8,20.5-3.4
		c0.7,12.6-13.3,15.4-20.5,20.5c-7.9,5.6-14.5,12.7-22.7,17c0.4,20.7-16,44.1-35.3,30.7c-2,17-27.5,32.5-38.6,13.7
		c-44.5,11-86.1,27.6-126.1,51.3c-37.2,22.1-94.9,55.4-87.6,117.1c6.8,57.8,71.2,75.2,142.2,71.7c62.8-3.2,127-32.6,167.2-67.1
		c13.6-11.7,45.2-35.5,37.5-59.1c-11.8-36.4-80.5-28-119.4-19.4C363,160.7,311.9,192.8,261.7,219.5 M486.8-4.5
		c4.7-5.1,11.8-7.9,15.9-13.7C488.8-31,464-30.7,458.4-11.4c-0.9,3.2-3.9,35.7-3.4,37.5c4.2,15.2,29.2-1.5,19.4-17
		c-5.7-1.5-5.6,2.8-10.2,2.2C447.8-4.1,478.5-24.7,486.8-4.5"/>
	<path d="M545.9,39.8c1.8,20.7-4.7,43.1-29.6,41c-10.8,18.4-25.6,32.8-54.6,33c22.9-4.7,38.3-17,48.9-34.2
		C486.2,56.9,504.1,7.1,524.3-8h4.6c0.4,25.8-1.6,59-10.2,79.6C536.5,78.7,541.7,54.1,545.9,39.8 M519.7,18.3
		c0.8-6.1,6.1-12.8,1.1-17c-14,10.7-30.5,59.1-5.7,70.5C520.2,57.2,517.4,35.3,519.7,18.3"/>
	<path d="M477.7,50.1c21-1.2,11.5,28.6,3.4,39.8c-9.7,13.4-30.6,19.3-35.3,22.7c6.7-8.3,57.5-36.3,25-47.8
		C471.8,58.6,474.9,54.5,477.7,50.1"/>
	<path d="M465.2,45.5c5,8.5-2.2,23.3-7.9,28.4c-2.1,25.5-16.5,38.8-41,42.1c9.3-7.4,28.3-14.9,34.1-29.6c-1.5-5.1-10.3,3.4-14.8-1.1
		c-0.2-10.8,8.2-13,17-14.8C459.8,65.1,459.4,52.2,465.2,45.5"/>
	<path d="M394.7,99c-0.1,4.4,7.5,5.8,6.8,10.2c-1.3,6.2-3.6,11.5-10.2,12.5c-1.5-4.9-5.8-7.2-7.9-11.4c1.4-5.1,6.2-6.7,7.9-11.4
		c-2.4-4-5.1-7.8-9.1-10.2c3.4-4.2,7-8.2,10.2-12.5c5.8,5.7,9.1,5.8,9.1,12.5C401.4,92.8,394.7,96.8,394.7,99"/>
	<path d="M393.5,157c21.4,5.3,20.5,38.6,0,44.3c-3.3-10.1-10.1-16.5-18.2-21.6C380,170.7,388.7,165.8,393.5,157"/>
</g>
</svg>
