<?xml version="1.0" encoding="utf-8"?>
<!-- Generator: Adobe Illustrator 19.0.0, SVG Export Plug-In . SVG Version: 6.00 Build 0)  -->
<svg version="1.1" id="Layer_1" xmlns="http://www.w3.org/2000/svg" xmlns:xlink="http://www.w3.org/1999/xlink" x="0px" y="0px"
	 viewBox="122 -122 500 500" style="enable-background:new 122 -122 500 500;" xml:space="preserve">
<style type="text/css">
	.st0{fill:#92BB23;}
	.st1{fill:#C7D11C;}
	.st2{fill:#EEE32E;}
	.st3{fill:#F4D120;}
	.st4{fill:#EEB227;}
</style>
<g id="XMLID_10_">
	<polygon id="XMLID_8_" class="st0" points="311.6,191.2 370.8,191.2 449.6,23.9 390.4,23.9 	"/>
	<polygon id="XMLID_7_" class="st1" points="282.3,212.3 311.2,212.3 298,240.7 269.1,240.7 	"/>
	<polygon id="XMLID_6_" class="st2" points="332.4,212.3 361.7,212.3 348.4,240.7 319.2,240.7 	"/>
	<polygon id="XMLID_5_" class="st3" points="381.5,212.3 410.8,212.3 397.6,240.7 368.3,240.7 	"/>
	<polygon id="XMLID_4_" class="st3" points="432,212.3 460.9,212.3 447.7,240.7 418.7,240.7 	"/>
	<polygon id="XMLID_3_" class="st4" points="481.7,212.3 511.1,212.3 497.7,240.7 468.5,240.7 	"/>
	<path id="XMLID_2_" class="st0" d="M234.7,154.5c-12.5-23.9-41.5-87.7,45.1-84.3l-52.4,120.7h60.5l57.4-126.6h-97.7
		c-131.7,3.2-63.4,139.8-39.3,177.1l55.1-29l-6.7-13.6h-35.3l0,0c-0.5,0-1.1-0.2-1.6-0.4c-1.9-0.9-2.8-3.1-1.9-5L234.7,154.5z"/>
	<path id="XMLID_1_" class="st0" d="M509.4,101.5c12.5,23.8,41.5,87.7-45.1,84.3l52.3-120.7h-60.5l-57.4,126.7h97.7
		c131.7-3.2,63.4-139.9,39.3-177.2l-55.1,29l6.7,13.6h35.3v0.1c0.5,0,1.1,0.1,1.6,0.3c1.9,0.9,2.8,3.1,1.9,5L509.4,101.5z"/>
</g>
</svg>
