<?xml version="1.0" encoding="utf-8"?>
<!-- Generator: Adobe Illustrator 19.0.0, SVG Export Plug-In . SVG Version: 6.00 Build 0)  -->
<svg version="1.1" id="Layer_1" xmlns="http://www.w3.org/2000/svg" xmlns:xlink="http://www.w3.org/1999/xlink" x="0px" y="0px"
	 viewBox="122 -122 500 500" style="enable-background:new 122 -122 500 500;" xml:space="preserve">
<style type="text/css">
	.st0{fill:#A348A0;}
	.st1{fill:#F89826;}
	.st2{fill:#56BF64;}
</style>
<g>
	<g>
		<path class="st0" d="M279.2,37.3c-50.6,50.6-50.6,132.9,0,183.6s132.9,50.6,183.6,0l15.8,15.8c-59.3,59.3-155.9,59.3-215.2,0
			s-59.3-155.9,0-215.2L279.2,37.3z"/>
	</g>
	<g>
		<path class="st1" d="M565,128c0,106.4-86.6,193-193,193s-193-86.6-193-193S265.6-65,372-65v22.4c-94.1,0-170.6,76.5-170.6,170.6
			S277.9,298.6,372,298.6S542.6,222.1,542.6,128H565L565,128z"/>
	</g>
	<path class="st2" d="M477.5,69.1c4.1-6.9,14.1-9.8,17.5-10.4c-15.3-6.1-36-1.3-36-1.3s-30.5-41.8-90.4-41.8s-96.9,57-97.3,63.2
		c20.1-19.4,58.6-30,87.2-18s37.4,33.5,42.5,47.4s-3.6,30.8,18.4,51c12.3,9.7,27.3,8.4,36.6,5.1c-10.3,30.2-47.7,57.6-88.5,55.4
		c-30.3-1.7-52.8-17.8-52.8-17.8l-5.8,17.8c0,0,28,18.8,58.6,18.8c14,0,46.3,1.3,84.9-34.6c21.2-20.4,38-63.6,27.9-100.5
		C473.5,79.8,473.5,75.9,477.5,69.1z M414.3,89.3c-16-30.1-34.5-43-65.9-51.2c44.7-12.8,81.7,15,91.4,27
		C429.9,71,422.2,76.3,414.3,89.3z M443.7,147.9c-13.1,0.3-22.4-11.7-21.1-26.5c0.9-21.8,21.2-36.3,28.6-40.8
		c4.1,8.3,12.5,27,12.5,40.9C464.8,138.8,455.4,147.9,443.7,147.9z"/>
</g>
</svg>
