<?xml version="1.0" encoding="utf-8"?>
<!-- Generator: Adobe Illustrator 19.0.0, SVG Export Plug-In . SVG Version: 6.00 Build 0)  -->
<svg version="1.1" id="Layer_1" xmlns="http://www.w3.org/2000/svg" xmlns:xlink="http://www.w3.org/1999/xlink" x="0px" y="0px"
	 viewBox="122 -122 500 500" style="enable-background:new 122 -122 500 500;" xml:space="preserve">
<style type="text/css">
	.st0{fill:#F4C726;}
	.st1{fill:#F59B24;}
</style>
<g id="XMLID_2_">
	<path id="XMLID_8_" class="st0" d="M326.2,47.6l-0.5,0.2l0,0C281.6,73.3,266.6,130,291.9,174c5.3,9.2,12,17,19.5,23.5l55.3-31.8
		c0.2,0-18-1.8-27.9-18.9c-10.6-18.2-4.3-41.6,14.1-52.2l72.8-42.1l36.6-21l48-27.8c-13.1-14.7-28.4-26.8-44.9-36.6l-58,33.5
		L326.2,47.6z"/>
	<path id="XMLID_5_" class="st0" d="M278.6,288.4l58-33.5l81.2-46.7l0.5-0.3c44.1-25.5,59.4-82,33.9-126.2
		c-5.3-9.1-11.8-17-19.5-23.5L377.4,90c-0.2-0.2,17.9,1.6,27.8,18.7c10.6,18.2,4.3,41.7-14.1,52.2L318.4,203l-36.6,21.3l-48,27.8
		C246.9,266.6,262,278.7,278.6,288.4L278.6,288.4z M425.7,52.6L353,94.7l0.7-0.5l-0.5,0.3c0,0,0,0-0.2,0L425.7,52.6z"/>
	<path id="XMLID_4_" class="st1" d="M364.6,284.2c-3.7,2.2-5,7-2.8,10.9l19.1,33c2.2,3.7,7.1,5.2,10.9,3l73.1-42.3v-0.2
		c0,0,0,0,0.2,0c88.5-51.2,119.1-164.4,68.3-253.1l-46.6,26.8l0,0c36,63,14.3,143.4-48.7,179.7l0,0c-2.3,1.2-4.5,2.5-6.8,3.6
		l-51.2,29.8L364.6,284.2z"/>
	<path id="XMLID_3_" class="st1" d="M379.4-28.1c3.7-2.2,5.2-7.1,3-10.9l-19.1-33c-2.2-3.9-7-5.2-10.9-3l-73.5,42.4l0.2,0.2
		c-0.2,0-0.2,0-0.2,0C190.2,18.8,159.8,132,210.6,220.7l46.6-26.8l0,0c-36-63-14.3-143.4,48.7-179.7l0,0c2.2-1.2,4.5-2.5,6.7-3.6
		l51.3-29.9L379.4-28.1z"/>
</g>
</svg>
