<?xml version="1.0" encoding="utf-8"?>
<!-- Generator: Adobe Illustrator 19.0.0, SVG Export Plug-In . SVG Version: 6.00 Build 0)  -->
<svg version="1.1" id="Layer_1" xmlns="http://www.w3.org/2000/svg" xmlns:xlink="http://www.w3.org/1999/xlink" x="0px" y="0px"
	 viewBox="122 -122 500 500" style="enable-background:new 122 -122 500 500;" xml:space="preserve">
<style type="text/css">
	.st0{fill:#FECC07;}
	.st1{fill:#00254A;}
</style>
<g>
	<g>
		<path class="st0" d="M562.9,210.8c0.6-1.8,1-3.5,1.6-5.3c4.4-11.7,6.8-23.9,8.3-36.2c1.2-10,1.6-20,1-30.1
			c-0.9-18.9-4.6-37.3-11.2-55c-15.9-42.6-43.4-75.6-82.1-99.4c-20.4-12.6-42.4-21-65.9-25.7c-8.5-1.7-17-2.8-25.6-3.6
			c-9-0.8-18-0.8-27-0.3c-21.7,1.2-42.6,5.6-62.9,13.5c-27.5,10.7-51.7,26.5-72,47.8c-24.3,25.4-40.4,55.3-47.9,89.7
			c-3.3,15.1-4.6,30.5-3.9,46c1.7,39.2,14.6,74.4,37.8,105.8c8.4,11.4,18.2,21.4,28.9,30.6c3.8,3.2,7.6,6.3,11.5,9.5
			c0.7,0.6,1.4,1.1,2.2,1.8c-0.4,0.4-0.7,0.3-1,0.1c-2.9-2.1-5.9-3.9-8.8-6.1c-26.4-20.2-46.9-45.2-60.9-75.4
			c-7.8-16.7-13.1-34.2-15.8-52.4c-2.3-14.9-2.7-29.9-1.4-44.8c4.4-49.3,25.4-90.5,61.4-124.1c24.9-23.3,54.2-38.9,87.1-47.6
			c10.8-2.9,21.8-4.9,33-6c8.9-0.9,17.9-1.2,27-0.9c47.9,1.4,90.8,16.8,128,47.1c31.6,26.3,53.5,59.2,65.2,98.9
			c2.9,10,4.9,20.1,6.1,30.4c1.2,10.1,1.6,20.2,1.1,30.3c-0.7,15.5-3.1,30.7-7.7,45.5c-1.3,4.1-2.6,8.4-3.9,12.5
			C564.6,208.7,564.3,210,562.9,210.8z"/>
		<path class="st0" d="M512.5,214.7c0.3-0.5,0.6-0.9,0.8-1.5c6.9-14.7,11.4-30,13.5-45.9c1.4-10.6,1.8-21.3,1-32.1
			c-1.1-16.1-4.5-31.6-10.3-46.8C501.7,47.8,470,15.5,429.7-1.3c-11.8-5-24.1-8.5-36.8-10.3c-6.6-1-13.2-1.8-20-1.7
			c-3,0.1-5.9,0-9-0.5c0.3,0.7,0.8,0.4,1.1,0.3c2.7-0.4,5.5-0.6,8.3-0.6c43.6,0.4,81.3,15.4,113.2,45.1
			c19.4,18.1,33.4,39.8,42.1,64.9c2.6,7.6,4.5,15.5,5.8,23.5c1.6,9.6,2.3,19.2,2.3,28.9c-0.1,19.4-3.6,38.2-10.1,56.5
			c-4.1,11.4-9.5,22-15.9,32.1c-0.9,1.4-1.7,3-3.1,4.1c2.5-6.5,3.9-13.2,4.3-20.2C512,218.8,512.3,216.7,512.5,214.7z"/>
		<path class="st0" d="M351.2,10.5c0.5,1.8,0.3,3.7,0.1,5.5c-4.3,0.5-8.7,0.7-13.1,1.2c-16.6,2.3-32.2,7.7-46.5,16.4
			c-11.6,7.1-21.5,16.1-29.9,26.9c-4.7,6-9,12.2-12.9,18.8c-3.9,6.6-6.8,13.6-8.8,20.9c-1,3.6-1.6,7.1-2.3,10.8
			c-2,10.5-2.9,21.2-2.3,31.9c0.6,10,2.6,19.6,5.8,29c2.7,8.3,6.5,16,10.9,23.5c0.4,0.6,0.7,1.2,1,1.8c-0.6,0-1.1-0.1-1.6-0.6
			c-0.7-0.8-1.4-1.5-2.1-2.3c-6.7-8.7-11.2-18.4-13.1-29.2c-0.6-2.9-0.8-5.9-1.2-8.9c-0.8,0.5-0.4,1-0.4,1.5c0,0.7,0.1,1.4,0.1,2.1
			c0,0.6,0.1,1.1,0.2,1.7c0.6,2.8,1.3,5.5,1.8,8.4c1.1,6.2,3.5,11.9,6.2,17.5c0.9,1.9,2.1,3.6,3.1,5.4c0.6,0.9,1.3,1.8,1.6,3
			c-1,0.6-1.8,0-2.5-0.5c-0.6-1.1-1.1-2.3-1.7-3.4c-6.1-11.1-10.6-22.7-13.1-35.1c-0.8-3.6-1.2-7.2-1.6-10.9
			c-0.6-5.4-0.9-10.8-0.8-16.2c0.2-4.2,0.6-8.5,0.9-12.8c0-0.5,0.2-0.9,0.2-1.4c0.3-6.8,2.2-13.1,4.3-19.4c2.4-6.9,5-13.9,8.4-20.4
			c13-24.9,31.9-43.4,57.6-55c10-4.5,20.5-7.5,31.5-8.9C337.7,10.8,344.5,10.3,351.2,10.5z"/>
		<path class="st0" d="M458.8,278.4c3.7,0.8,7.4,1.7,11.2,2c-0.6,0.6-1.1,1.1-1.8,1.6c-18.3,13.2-38.6,22.4-60.7,27.3
			c-10,2.3-20.2,3.4-30.5,3.9c-7.1,0.3-14.3,0-21.4-0.8c-31.2-3.7-58.7-15.9-83-35.7c-16.7-13.7-30.5-29.8-40.9-48.7
			c-4.5-8.2-8.3-16.7-10.9-25.7c-0.3-1-0.6-2-0.8-3c-0.3-0.8,0.4-2-0.5-2.5c-0.4-0.3-0.5,0.3-0.4,0.6c0.4,0.8,0.8,1.4,1.1,2.2
			c0.5,0.9,0.8,1.9,1.2,2.8c6.8,18,16.6,34.1,29.1,48.7c11.6,13.5,25.3,24.5,40.7,33.4c13.2,7.6,27.2,13.4,42.2,17
			c8.5,2,16.9,3.3,25.5,3.9c9.1,0.8,18.2,0.6,27.3-0.3c13.6-1.2,26.9-4.3,39.6-9.1C437.8,291.6,448.5,285.5,458.8,278.4z"/>
		<path class="st0" d="M362.3,16.5c-0.1-1.8-0.2-3.6,0.1-5.4c8.7,0.8,17.3,2.6,25.5,5.5c28.6,10,51,27.6,66.6,53.7
			c1.7,2.8,3.1,5.9,4.7,8.8c0.2,0.4,0.6,0.8,0.3,1.3c-0.6,0.2-0.7-0.4-0.8-0.7c-0.8-1.3-1.5-2.5-2.3-3.9
			c-8.2-15-19.6-27.1-33.4-37.3c-14.4-10.6-30.4-17.2-47.8-20.6C371,17.4,366.7,16.8,362.3,16.5z"/>
		<path class="st0" d="M249.4,201c1.8,0.5,3.4,1.4,4.7,2.6c1.2,1,2.4,2.1,3.6,3.2c2.4,2.3,4.9,4.5,7.5,6.5c0.5,0.4,0.8,0.8,1.1,1.2
			c0.3,0.3,0.6,0.6,0.8,0.8c0.3,0.3,0.6,0.1,0.8,0h0c-0.2,0.9-0.1,0.9,0.8,0.8l0,0c-0.1,0.2-0.3,0.5-0.2,0.6c0.5,0.7,1,1.2,1.6,1.8
			c6,5.9,12.5,11.2,19.6,15.8c10.7,6.9,22.3,12.1,34.6,15.4c3.9,1,7.9,1.7,11.8,2.4c2.3,0.5,4.5,0.8,6.9,1.2
			c-3.8,0.4-7.1,0.2-10.6-0.3c-4.8-0.8-9.6-1.5-14.3-2.6c-25.9-6.7-47-20.7-63.6-41.5c-1.5-1.9-2.9-3.9-4.3-5.8
			C250,202.2,249.7,201.5,249.4,201z"/>
		<path class="st0" d="M469.7,269.2c0.6-0.2,1-0.5,1.6-0.6c7.9-1.7,14.8-5.2,21.4-9.9c0.9-0.7,1.9-1.3,2.8-2
			c-0.9,1.1-1.8,2.3-2.8,3.5c-4.7,5.2-9.7,9.9-14.9,14.4c-0.8,0.7-1.8,1.1-2.1,2.2h0.1c-0.5-0.1-0.8,0.2-1,0.5
			c-4.3,0.4-8.5-0.1-12.6-1.4C464.7,273.7,467.2,271.4,469.7,269.2z"/>
		<path class="st0" d="M503.4,232c0.1,0.9-0.1,1.8-0.4,2.7c-2.2,8.7-6.8,16-13.3,22.1c-3.9,3.7-8.5,6.6-13.4,8.8
			c-0.9,0.4-1.8,1-2.9,0.8c0.9-0.9,2-2,2.9-2.9c9.8-9,18.4-18.9,25.7-30C502.4,233,503,232.4,503.4,232z"/>
	</g>
	<g>
		<path class="st1" d="M253.3,197.4c0.3,0.2,0.6,0.5,0.8,0.5c5.2,0.8,10.2,1.5,15.5,1.3c8.1-0.3,16-1.7,23.6-4.9
			c1.4-0.6,2.7-1.1,4.1-1.8c9.3-4.1,17.2-10.2,23.6-18.2c4.3-5.4,6.9-11.4,8.2-18.1c0.8-4.9,1.4-9.9,1.4-14.7
			c0.1-7.4,0-14.7-0.4-22.2c-0.2-3.8-0.3-7.6-0.3-11.4c0-10,0-20.1,0-30.1c0-1.4,0-2.7,0.1-4.1c0.2-2.9,1.1-5.6,2.9-8
			c1.2-1.6,2.5-3.2,4.1-4.7c0.8,0.8,0.6,1.6,0.6,2.3c0.3,14.6,0.6,29,0.8,43.6c0.2,11.5,0.3,22.8-0.1,34.3
			c-0.4,11.6-3.2,22.5-8.3,33c-2.7,5.5-6.2,10.5-10.7,14.7c-3.5,3.2-6.9,6.4-10.5,9.6c-0.9,0.8-2.1,1.5-3.2,2.1
			c-3,1.6-6.1,3.2-9.2,4.8c-4.5,2.3-9.2,4.1-14.2,5.4c-0.6,0.2-1.1,0.3-1.7,0.4c-0.8,0.1-1.4,0-1.9-0.6c-2.7-3-6.3-4.1-10-5.3
			c-2.8-0.8-5.8-1.5-8.7-2c-0.5-0.1-0.9-0.2-1.3,0.2c-0.1,0.7,0.4,1,0.8,1.4c2.2,2.3,4.8,4,7.4,5.6c4.7,2.8,9.7,4.9,14.7,6.7
			c4.3,1.5,8.8,2.7,13.3,3.4c2.8,0.4,5.7,0.7,8.6,0.7c11,0,21.5-2.1,31.5-6.9c3.4-1.7,6.7-3.6,9.7-6c0.6-0.5,1.1-0.8,1.7-1.2
			c5.1-3.4,9.3-7.6,12.8-12.5c6.9-9.7,11.6-20.4,13.9-32.1c0.8-3.8,0.8-7.5,1-11.4c0.2-3.1,0.4-6.2,0.8-9.3c0.5-3.1,1-6.1,2.5-8.9
			c0.8-1.4,0.6-2.6-0.5-3.9c-0.6-0.6-0.9-1.3-1.5-1.9c-1.1-1.1-1.5-2.5-1.7-4c-0.2-2.3,0.2-4.6,0.5-6.9c0.2-1.1,0.5-2.3,0.7-3.3
			c0.5-0.3,0.9-0.2,1.3,0.2c1.6,1.5,3.2,3,4.8,4.4c0.9,0.8,2,1.6,3,2.3c0.7,0.5,1.2,0.4,1.9-0.1c0.9-0.8,1.9-1.8,2.8-2.5
			c5.2-3.9,10.9-6.9,17.4-8.2c3.7-0.8,7.3-0.8,10.9,0.4c0.2,0.1,0.5,0.1,0.7,0.2c4.7,1.8,7.2,5.2,7.4,10.2c0.1,2.8-0.5,5.5-1.5,8.1
			c-0.8,2.2-2.1,4.1-3.3,6c-0.7,1-1.4,2.1-1.8,3.5c1.7,0.6,3.3,1,4.9,1.5c1.7,0.5,3.3,1,5,1.5c0.5,0.1,0.9,0.2,1.4,0.2
			c3.7,0,7.3,0.7,11,1.1c2.6,0.4,5.3,0.5,7.9,0.8c3.3,0.5,5.4-0.9,7.2-3.7c2.3-3.7,3.6-7.7,4.1-12c0.5-3.9,0.7-7.8,0.6-11.7
			c-0.1-1.8,0.3-3.4,0.8-5.1c1.7-4.7,3.2-9.4,4.8-14.1c0.8-2.3,1.5-4.6,2.7-6.8c0.4-0.7,0.7-1.5,1.5-1.7c0.8,0.3,0.5,0.9,0.5,1.4
			c-0.1,5.6-0.2,11.3-0.4,16.9c-0.2,4.6-0.3,9.2-0.8,13.8c-0.4,3.3-0.8,6.7-1.6,9.9c-1,4.2-2.7,8.1-6.2,10.9c-0.4,0.3-0.7,0.7-0.9,1
			c-0.2,0.3-0.2,0.7-0.2,0.9c0,0.4,0.4,0.6,0.8,0.6c1,0,2.1,0,3.1,0c5.1,0,10.1,0,15.2-0.1c0.9,0,1.9,0,2.7,0.1
			c1.7,0.3,2.9,1.6,3,3.3c0.1,1.1-0.1,2.3-0.7,3.4c-1.6,2.9-3.3,5.8-4.9,8.7c-0.1,0.2-0.4,0.3-0.8,0.6c-2.3-0.1-4.6-0.2-7-0.4
			c-3.5-0.3-6.9,0.1-10.3,0.3c-0.8,0.1-1.3,0.5-1.3,1.2c0,9-0.6,18,0.8,27c0.4,2.3,0.9,4.5,2,6.6c0.9,1.9,2.3,3.1,4.4,3.6
			c0.8,0.2,1.6,0.2,2.3,0.1c0.7-0.1,1.3-0.1,2.1-0.1c0.1,0,0.2,0.1,0.4,0.3c-1.6,1.3-3.5,1-5.3,1.1c-1.9,0.1-3.7-0.3-5.4-1.2
			c-1.7-0.8-3-2.1-4.1-3.6c-1.1-1.4-1.7-3.2-2.4-5.1c-1.3,1.5-2.5,2.7-3.9,3.7c0,0.7-0.1,1.2,0,1.8c1.3,11.2-1.6,21.2-7.4,30.6
			c-3.4,5.3-7.2,10-12.4,13.8c-1.3,0.9-2.5,2-3.8,3c-0.6,0.5-1.3,0.9-1.7,2c0.3,0.7,0.5,1.5,0.8,2.3c1.5,3.5,3.5,6.8,5.4,10
			c1,1.7,2.4,2.3,4.4,2.1c1.8-0.3,3.7-0.4,5.4-0.8c18.7-3.7,32.6-13.9,41.7-30.6c2.4-4.5,3.9-9.3,5.4-14.2c0.3-1.1,0.5-2.3,0.5-3.4
			c0.1-2.7-1.2-4-3.9-4.3c-1.5-0.2-3-0.2-4.5,0.2c-1.3,0.3-2.7,0.7-4,0.9c-0.7,0.1-1.3,0.4-2.2-0.2c-0.3-2.7-0.2-5.5,0-8.5
			c2.7-1.4,5.5-1.9,8.5-1.7c2.7,0.2,4.8,1.6,6,4c1.1,2.2,1.6,4.5,1.8,6.9c1.4,13.6-2.3,25.8-10.5,36.6
			c-8.7,11.6-20.1,19.9-34.1,24.2c-0.5,0.2-1.1,0-1.4,0.7c0.1,0.2,0.1,0.6,0.2,0.7c2.5,1.8,5.3,3.3,8.2,4.4c2.6,1.1,5.4,2.2,8.3,2.4
			c4.1,1.3,8.3,1.8,12.6,1.4c0.4,0,0.8,0.2,1-0.5h-0.1c0.5,0.1,0.8,0.4,1.3,0.4c6-0.3,11.9-1.4,17.5-3.9
			c10.6-4.9,18.9-12.2,24.5-22.5c3.9-7,5.7-14.6,5.9-22.5c0.1-2.2,0-4.4,0-6.6c0.8,0.1,1,0.7,1.1,1.2c0.8,3.2,1.5,6.5,1.6,9.9
			c0.8,14.1-4.6,25.8-13.6,36.2c-4.7,5.4-10.2,9.6-16.5,13c-0.4,0.2-0.8,0.4-1.2,0.7c-2.1,1.1-4.1,1.4-6.2,0c-1.1-0.8-2.5-1-3.9-1.2
			c-0.8-0.1-1.6-0.3-2.4-0.3c-4-0.3-8.1-0.5-12.1-0.8c-0.6,0-1.1,0.1-1.7,0.1c-3.8-0.4-7.5-1.2-11.2-2c-0.8-0.4-1.4-0.8-2.2-1
			c-5.6-2.2-10.9-4.9-15.4-9c-2.6-2.4-5.6-3.9-9-4.8c-3.8-0.9-7.6-1.9-11.5-2.6c-9.8-2-18.6-5.9-26.4-12.1c-1.9-1.5-3.8-3-5.6-4.5
			c-0.8-0.7-1.7-1.1-2.7-1.4c-14-3.3-24.3-11.6-31.7-23.7c-0.6-0.8-1.1-1.7-1.7-2.6c-0.1-0.1-0.2-0.1-0.3-0.2
			c-0.8,0.2-1.3,0.8-2,1.4c-4.7,4.1-10.2,7-15.6,10.1c-2.4,1.4-5,1.5-7.6,0.4c-1.4-0.6-2.8-1.1-4.2-1.5c-3-0.9-6.1-0.9-9.2-1.2
			c-4.1-0.4-8.3-0.6-12.4-0.8c-10.7-0.5-20.8-3.3-30.3-8.5c-0.7-0.4-1.2-1.1-2.2-0.6l0,0c0.3-0.8-0.3-0.8-0.8-0.8h0.1
			c-0.3-0.8-0.9-1-1.7-0.8c-0.4-0.4-0.8-0.8-1.1-1.2c-2.6-2-5.1-4.2-7.5-6.5c-1.1-1.1-2.3-2.2-3.6-3.2c-1.4-1.2-2.9-2.2-4.7-2.6
			c-1.4-0.8-3-1.2-4.5-1.7c-16.4-5.2-28.7-15.6-37.4-30.4c-4.4-7.5-7-15.7-8.5-24.3c-0.2-1.1-0.2-2.3-0.3-3.4
			c0.8-0.2,0.8,0.5,0.8,0.8c1.2,8.2,4.1,15.8,8.3,22.9c8.4,14.4,20.4,24.4,36.1,30.1c0.5,0.2,0.8,0.2,1.3,0.3c0.8,0.5,1.5,1,2.5,0.5
			c-0.2-1.2-1-2-1.6-3c-1-1.8-2.2-3.5-3.1-5.4c-2.7-5.5-5.1-11.3-6.2-17.5c-0.6-2.8-1.2-5.6-1.8-8.4c-0.1-0.6-0.1-1.1-0.2-1.7
			c-0.1-0.7-0.1-1.4-0.1-2.1c0-0.5-0.4-1,0.4-1.5c0.4,3.1,0.8,6,1.2,8.9c2,10.8,6.5,20.6,13.1,29.2c0.7,0.8,1.3,1.6,2.1,2.3
			C252.1,197.2,252.7,197.4,253.3,197.4z M373.5,208.6c0.2,0.1,0.3,0.2,0.3,0.3c0.3,1.3,0.6,2.7,0.8,4c2,8.5,5.6,16.3,10.9,23.3
			c0.9,1.2,2,2.3,3,3.3c0.8,0.8,1.7,1.2,2.7,1.3c2.7,0.4,5.4,0.8,8.3,0.4c1.2-0.2,2.5-0.2,3.8-0.2c2.8,0,5.5-0.5,8.2-1.3
			c18-5.8,30.1-17.6,35.7-35.9c0.4-1.2,0.7-2.4,0.8-3.8c0.4-3.4-0.8-4.3-4.2-3.8c-1.2,0.2-2.5,0.4-3.8,0.4c-2.8-0.1-5.5-2.7-5.8-5.4
			c-0.5-4.1,1.1-7.4,4.1-10.1c2.1-1.8,5-1.7,6.9,0.3c0.8,0.8,1.4,1.8,2,2.8c0.7,1.1,1,2.3,1.6,3.5c0.3,0.6,0.5,1.3,1.2,1.6
			c0.5,0.2,1.2-0.5,1.7-1.5c0.4-0.9,0.8-1.9,1-2.9c0.4-1.9,0.7-3.9,0.8-5.8c0.1-5.4,0-10.8,0-16.2c0-0.6,0.1-1.1-0.5-1.5
			c-0.8-0.3-1.4-0.1-2.1,0.2c-5.4,1.7-10.9,2.8-16.2,4.7c-2.7,0.9-5.4,1.8-8.3,2.5c-1.4,0.4-2.9,0.8-4.4,0.9
			c-2.6,0.4-5.3,0.5-7.9,0.8c-1.9,0.3-3.9,0.4-5.6,0.9c-0.2,1.4,0.3,2.4,0.5,3.6s0.9,2.2,0.5,3.7c-0.5-0.8-0.8-1.2-1-1.7
			c-0.7-1.2-1.2-2.4-1.8-3.8c-0.6-1.2-1.3-2-2.8-2.3c-1.8-0.3-3.6-0.8-5.4-1.3c-4.1-1.1-8-2.7-11.4-5.6c-2.8-2.5-5.9-4.8-8.8-7.2
			c-0.5-0.4-0.8-0.8-1.6-0.6c0.1,1.1,0.2,2.3,0.3,3.4c0.1,1.4,0.3,2.7,0.3,4.1c0,9.7-2.2,19-6.4,27.7c-3.8,8-8.9,15-15,21.4
			c-0.8,0.8-1.8,1.4-2.3,2.7c0.2,0.4,0.3,0.8,0.5,1.1c4.9,7.9,11.2,14.3,19.3,18.8c3.1,1.7,6.5,3,10,3.9c0.5,0.1,1.1,0.4,1.6-0.5
			c-0.8-1.4-1.8-2.8-2.7-4.2c-3.9-5.7-6.4-12-7.9-18.7C373.9,213.6,373.2,211.2,373.5,208.6z M386.8,122c0.1,0.7,0.6,0.9,1,1.3
			c1.3,0.9,2.6,1.9,4,2.7c5,2.9,10,5.5,15.4,7.8c6.9,2.9,4.8,3.1,8.2-2.9c1.5-2.7,1.9-5.6,1.5-8.7c-0.5-3.7-2.6-6.2-6.2-7
			c-2.3-0.6-4.8-0.8-7.2-0.5c-5.6,0.8-10.6,2.9-15.3,5.8C387.6,120.9,386.9,121.1,386.8,122z M405.8,146.6c-0.7-0.3-0.9-0.5-1.2-0.6
			c-8.2-3-15.8-6.9-22.5-12.4c-0.6-0.5-1.1-0.8-1.7-1.2c-0.5-0.4-1.3,0-1.3,0.6c-0.4,3.1-0.5,6.2,0.3,9.2
			c2.3,9.6,11.6,17.2,23.3,17.5c0.7,0,1.1-0.4,1.2-1C404.5,154.8,405.1,150.8,405.8,146.6z M394.2,244.8c2.4,2.4,5.1,4.2,8.2,5.4
			c2.4,0.9,5,1.9,7.5,2.7c6.5,2.2,13.1,3.7,19.7,5.2c0.6,0.1,1.3,0.6,1.9-0.3c-1-3.2-5.1-11.4-6.6-13.6c-0.8,0-1.2,0.6-1.9,0.8
			c-1.1,0.6-2.3,1.1-3.5,1.6c-1.6,0.6-3.1,0.7-4.7-0.1c-1.4-0.7-2.8-1-4.3-1.2c-5.3-0.8-10.5-1.2-15.9-1
			C394.6,244.4,394.5,244.5,394.2,244.8z M434.5,153.9c-0.2-0.1-0.3-0.4-0.5-0.4c-0.8-0.2-1.6-0.4-2.3-0.6c-6-1.1-12-2.2-17.8-4.1
			c-0.3-0.1-0.7-0.2-1-0.2c-1.7-0.4-2.6,0-3.5,1.4c-1.5,2.4-2.2,5.1-2.2,7.9c0,0.6-0.1,1.1,0.6,1.5
			C417.2,160.4,429.8,157.8,434.5,153.9z"/>
		<path class="st1" d="M362.3,16.5c0,1.6-0.1,3.2-0.1,4.8c0.2,18.2,0.5,36.4,0.5,54.7c0.1,16.7,0,33.4-0.1,50.1
			c-0.1,7.5-0.3,14.9-1.1,22.4c-0.7,5.9-1.8,11.8-3.7,17.6c-3.3,10-8.9,18.6-16.6,25.8c-4.8,4.5-10,8.5-15.7,11.9
			c-1,0.7-2.2,1.2-3.4,1.8c-3.4,1.5-6.8,2.9-10.1,4.4c-4,1.8-8.3,2.8-12.6,3.7c-2.6,0.6-5.2,0.9-7.8,1.3c-1,0.2-2,0.3-3.1-0.1
			c2.9-0.6,5.7-1,8.5-1.7c5.4-1.3,10.4-3.4,15.3-6.1c3.5-1.9,6.8-3.9,10-6.2c13.5-9.5,22.2-22.3,26.1-38.2
			c1.5-6.2,2.3-12.4,2.8-18.8c0.9-12.4,0.7-24.9,0.5-37.3c-0.3-24.9-0.3-49.8-0.3-74.7c0-4.1,0.1-8.3,0.1-12.5
			c0-1.1-0.1-2.3-0.2-3.5c0.2-1.9,0.4-3.7-0.1-5.5c0.1-0.7,0.3-1.3,0.3-2.1c0-3.8-0.1-7.6-0.2-11.4c-0.1-3-0.2-6,0.4-8.9
			c0.3-1.4,0.8-2.6,1.5-3.8c2.3-3.1,4.5-6.1,6.8-9.1c0.3-0.5,0.7-0.9,1.4-0.8c0.5,0.9,0.3,2,0.3,3c0.1,10.1,0.3,20.2,0.4,30.3
			c0,1.1,0.1,2.3,0.2,3.4C362.1,13,362.2,14.7,362.3,16.5z"/>
		<path class="st1" d="M512.5,214.7c-0.2,2.1-0.5,4.1-0.6,6.2c-0.3,6.9-1.8,13.7-4.3,20.2c-0.7,1.1-1.2,2.2-1.9,3.3
			c-2.1,3.8-4.7,7-7.8,10c-0.8,0.8-1.6,1.6-2.4,2.4c-0.9,0.7-1.9,1.3-2.8,2c-6.5,4.6-13.5,8.1-21.4,9.9c-0.6,0.1-1,0.4-1.6,0.6
			c-1.9-0.3-3.8,0.3-5.6-0.2c3.2-0.8,6.5-1,9.3-2.6c1.1,0.2,2-0.4,2.9-0.8c4.9-2.3,9.4-5.2,13.4-8.8c6.6-6.1,11.1-13.3,13.3-22.1
			c0.2-0.9,0.4-1.8,0.4-2.7c1-3,1.3-6.1,1.3-9.2c0.2-6.6,0.3-13.1,0.2-19.7c0-16.6-0.1-33.2-0.2-49.8c0-9,0.1-18-0.1-27
			c-0.1-4.4,1.2-8.2,4.2-11.4c0.7-0.8,1.1-1.7,2.2-2.1c0.8,0.3,0.5,0.8,0.5,1.2c0.1,7.4,0.1,14.7,0.2,22.2c0.4,25,0.6,50.1,0.5,75
			C512.3,212.4,512.4,213.6,512.5,214.7z"/>
		<path class="st1" d="M428.5,88.1c-0.8,0.8-1.6,1.4-2.3,2.2c-1.2,1.1-2.6,1.9-4.1,2.4c-5.6,2.2-13.4-1.7-14.7-8.6
			c-0.5-2.4-0.4-4.8,0.6-7.1c1.3-3.3,3.7-5.5,7.1-6.5c4.4-1.1,8.5-0.8,11.7,2.7c0.2,0.3,0.5,0.5,0.8,0.8c1.2,1.1,1.5,1.1,2.5,0.1
			c0.8-0.7,1.5-1.4,2.3-2.1c6.4-4.9,14.8-1.2,17.3,4.8c2.3,5.5,0.2,12.2-5,14.9c-4.6,2.4-10.5,1.7-13.7-1.8
			C430.3,89.3,429.7,88.6,428.5,88.1z"/>
		<path class="st1" d="M280.1,130.6c0.1,6.9-4.6,12.2-12,13.3c-7,1.1-11.4-2.7-13.6-7.2c-1.7-3.3-2.2-6.8-1.2-10.4
			c1.4-5.3,5.1-8,10.1-9.2c0.5-0.1,0.9-0.1,1.4-0.2C274.7,115.5,280.3,123.4,280.1,130.6z"/>
		<path class="st1" d="M464.1,222.5c0.7,0.8,1.2,1.5,1.7,2.1c1.9,2.3,1.4,6.3,0,8.1c-2,2.5-5.4,3.5-8.4,2.3
			c-2.8-1.1-4.6-3.8-4.5-6.8c0-1.2,0.5-2.3,1.1-3.2c0.6-0.8,1.2-1.7,1.8-2.3c-0.1-1-0.8-1.4-1.3-2.1c-1.7-2.3-2.1-4.6-0.8-7.1
			c1.2-2.5,3.3-3.8,6-3.9c2.7-0.2,5,0.8,6.5,3.1s1.6,4.8,0,7.1C465.4,220.7,464.9,221.4,464.1,222.5z"/>
	</g>
</g>
</svg>
