<?xml version="1.0" encoding="utf-8"?>
<!-- Generator: Adobe Illustrator 19.0.0, SVG Export Plug-In . SVG Version: 6.00 Build 0)  -->
<svg version="1.1" id="Layer_1" xmlns="http://www.w3.org/2000/svg" xmlns:xlink="http://www.w3.org/1999/xlink" x="0px" y="0px"
	 viewBox="122 -122 500 500" style="enable-background:new 122 -122 500 500;" xml:space="preserve">
<style type="text/css">
	.st0{fill-rule:evenodd;clip-rule:evenodd;}
	.st1{fill-rule:evenodd;clip-rule:evenodd;fill:#0CAE01;}
</style>
<g>
	<path class="st0" d="M297.9,33.4c9.8-0.2,13.9,0.3,22.7,1.7c4.4-11.1,10.9-20.8,18.1-26.5l25.8-20c21.5-15.4,27.2-2.4,44.5,9.9
		c7.8,5.5,17.9,13.5,23.4,21.5c11,16.2,9.2,26.3,15.6,30.2c6.8,4.1,28.7,5.3,46.4,21.3c27.5,24.8,8.3,29.9-17.1,46.6L395,172.3
		c-12.2,8.2-73.7,45.4-79.8,55.6c-8.5,14.1-1.9,23.9,4.6,33.7c-0.3-11.3,11.3-15.9,26.4-25.7c10.7-7,21.2-13.8,32-21.1l126.7-83.7
		c10.6-6.9,25.1-14.1,28.2-24.8c3.8-13-4.4-33.3-10.2-41.7c-11.2-16.1-26.4-25.8-45.6-32.5c-12-4.2-10-1.1-14.6-12.4
		c-11.4-27.9-31.1-37.1-53.3-52.9c-31.6-22.6-30.3-19.5-68.1,7c-11.7,8.1-21.6,14.4-29.5,23.6c-4.5,5.3-7,8.8-10.4,15.6
		C296.3,22.7,295.2,22.7,297.9,33.4L297.9,33.4z"/>
	<path class="st1" d="M346.3,190.5c6.7-3.1,17.6-12.3,23.3-14.4c-1.7-3.1,0.3-0.3-1.6-2.2L277.8,114c-14.7-9.9-14.6-24.2-3.3-31.3
		c3.9,3.7,4.3,13.5,18,9.8c8.9-2.3,18.2-23.5,38.9-16.5c11.7,4,12.3,10.4,15.5,12.7c1.8-15.4-6.7-29.4-13.9-36.2
		c-10.6-10-22.2-12-40.3-12c-17.4-61.8-63.6-21.4-81-54.3c-3.8-7.2-2.6-9.1-3.9-12.6c-0.8-2.2-0.2-1.1-1.3-2.5
		c-4.8,17.2-5.2,25.2,4.5,38.8c9.4,13.2,18.1,10.7,29.6,19.3c8.3,6.2,15.2,20.9,11,36.1c-6.3,23.1-29.5,42.3,5.2,66.5L346.3,190.5z"
		/>
	<path class="st0" d="M318,304.3c5.6-5.8-1.5-3.7,12.8-13c26.5-17.2,197.9-129.6,203.3-135.2c10.7-11.3,7.5-30.4-1.6-37.2
		c-0.2,10.9-11.6,15.5-26.2,25L320.7,266.7C302.3,282.9,316.8,301.1,318,304.3L318,304.3z"/>
	<path class="st0" d="M227.4,117.3c-9.1,10-12.1,23.7-2.8,36.3c3.9,5.4,49,34.5,58.1,40.8l28.9,19.3c7.6-4.1,15.6-11.2,23.1-15
		c-3.1-3.8-48.1-33.4-56-38.8c-9.9-6.7-18.5-12.4-27.9-18.9C236.7,131.2,227.7,128.3,227.4,117.3L227.4,117.3z"/>
</g>
</svg>
