<?xml version="1.0" encoding="utf-8"?>
<!-- Generator: Adobe Illustrator 19.0.0, SVG Export Plug-In . SVG Version: 6.00 Build 0)  -->
<svg version="1.1" id="Layer_1" xmlns="http://www.w3.org/2000/svg" xmlns:xlink="http://www.w3.org/1999/xlink" x="0px" y="0px"
	 viewBox="122 -122 500 500" style="enable-background:new 122 -122 500 500;" xml:space="preserve">
<style type="text/css">
	.st0{fill:#FF7900;}
</style>
<g>
	<path class="st0" d="M508.4,198.5L579,128l-28.3-28.3l0,0l-37.3-37.3l0,0l-87.2-87.2l0,0l-33.2-33l0,0L372-79L165,128l207,207
		l115.9-116C495.1,212.8,502,206,508.4,198.5z M475.2,210.8c-0.6,0.5-1.3,1.1-2,1.6c-0.4,0.3-0.6,0.5-1,0.8c-0.6,0.5-1.3,1-2,1.5
		c-0.4,0.3-0.7,0.5-1.1,0.8c-1,0.8-2,1.5-3.1,2.3c-32.8,23.8-70.9,36.1-107.5,34.4c-36-1.6-66.1-16.7-84.8-42.3
		c-0.5-0.7-1-1.4-1.5-2.2c-0.2-0.2-0.3-0.4-0.4-0.6c-0.4-0.5-0.7-1-1-1.6c-0.2-0.2-0.3-0.5-0.4-0.7c-0.4-0.5-0.7-1.2-1.1-1.7
		c-0.1-0.2-0.2-0.3-0.3-0.5c-0.5-0.7-0.9-1.5-1.3-2.3c-0.1-0.2-0.2-0.4-0.3-0.5c-0.4-0.5-0.6-1.2-0.9-1.7c-0.2-0.2-0.3-0.5-0.4-0.7
		c-0.3-0.5-0.5-1.2-0.9-1.6c-0.1-0.2-0.2-0.4-0.3-0.6c-0.4-0.8-0.7-1.6-1.1-2.3l0,0c-0.4-0.8-0.7-1.5-1-2.3
		c-0.1-0.2-0.2-0.4-0.3-0.6c-0.2-0.5-0.5-1.2-0.7-1.7c-0.1-0.2-0.2-0.5-0.3-0.7c-0.3-0.6-0.5-1.3-0.7-2c-0.1-0.2-0.1-0.3-0.2-0.4
		c-0.3-0.8-0.5-1.6-0.9-2.4c-0.1-0.2-0.1-0.4-0.2-0.5c-0.2-0.6-0.4-1.3-0.5-2c-0.1-0.2-0.2-0.5-0.2-0.7c-0.2-0.6-0.4-1.3-0.5-2
		c-0.1-0.2-0.2-0.4-0.2-0.5c-0.2-0.9-0.4-1.6-0.6-2.5l0,0c-0.2-0.9-0.4-1.6-0.5-2.5c-0.1-0.2-0.1-0.4-0.2-0.6
		c-0.2-0.6-0.3-1.3-0.4-2c-0.1-0.2-0.1-0.4-0.2-0.6c-0.2-0.8-0.3-1.5-0.4-2.3c0-0.1,0-0.2-0.1-0.2c-0.2-0.9-0.2-1.7-0.4-2.7
		c0-0.2-0.1-0.4-0.1-0.5c-0.1-0.7-0.2-1.4-0.2-2.2c0-0.2-0.1-0.4-0.1-0.7c-0.1-0.7-0.2-1.4-0.2-2.1c0-0.2,0-0.4-0.1-0.5
		c-0.1-0.9-0.2-1.8-0.2-2.7l0,0c-0.1-0.9-0.1-1.7-0.1-2.6c0-0.2,0-0.5,0-0.6c0-0.7,0-1.4,0-2.1c0-0.2,0-0.4,0-0.6
		c0-0.9,0-1.7,0.1-2.6v-0.1c0-0.9,0.1-1.9,0.2-2.7c0-0.2,0-0.3,0-0.5c0.1-0.7,0.1-1.5,0.2-2.3c0-0.2,0-0.4,0.1-0.6
		c0.1-0.7,0.2-1.5,0.2-2.3c0-0.2,0-0.3,0.1-0.4c0.1-0.9,0.2-1.9,0.3-2.8c0,0,0,0,0-0.1c0.2-0.9,0.2-1.7,0.4-2.7
		c0-0.2,0.1-0.4,0.1-0.6c0.2-0.7,0.2-1.4,0.4-2.2c0-0.2,0.1-0.4,0.1-0.5c0.3-1.8,0.6-3.7,1.1-5.5c0-0.2,0.1-0.4,0.2-0.5
		c0.2-0.7,0.4-1.5,0.5-2.3c0.1-0.2,0.1-0.5,0.2-0.6c0.2-0.8,0.4-1.5,0.5-2.3c0.1-0.2,0.1-0.3,0.2-0.5c0.2-0.9,0.5-1.9,0.8-2.8
		c0-0.1,0-0.1,0.1-0.2c0.2-0.9,0.5-1.7,0.8-2.5c0.1-0.2,0.2-0.4,0.2-0.6c0.2-0.7,0.5-1.4,0.7-2.2c0.1-0.2,0.2-0.5,0.2-0.6
		c0.6-1.8,1.3-3.7,2-5.5c0.1-0.2,0.2-0.4,0.2-0.5c0.3-0.7,0.5-1.4,0.9-2.2c0.1-0.2,0.2-0.4,0.3-0.7c0.3-0.7,0.6-1.5,0.9-2.3
		c0.1-0.2,0.2-0.3,0.2-0.4c0.5-0.9,0.8-1.8,1.3-2.7c0.1-0.1,0.1-0.2,0.2-0.3c0.4-0.8,0.7-1.6,1.1-2.3c0.2-0.2,0.2-0.5,0.4-0.7
		c0.4-0.6,0.6-1.4,1-2c0.2-0.2,0.2-0.4,0.4-0.6c0.9-1.7,1.9-3.5,2.8-5.2c0.2-0.2,0.2-0.4,0.4-0.6c0.4-0.6,0.7-1.3,1.2-2
		c0.2-0.2,0.3-0.5,0.5-0.7c0.5-0.7,0.9-1.3,1.3-2.1c0.1-0.2,0.2-0.4,0.3-0.5c0.5-0.9,1.1-1.7,1.6-2.6c0.1-0.2,0.2-0.3,0.3-0.5
		c0.3-0.5,0.6-0.9,0.9-1.4c-0.1,0.2-0.2,0.3-0.2,0.5c-0.2,0.4-0.4,0.9-0.5,1.3c-0.2,0.3-0.2,0.6-0.4,0.9c-0.2,0.4-0.4,0.9-0.5,1.3
		c-0.2,0.3-0.2,0.6-0.4,0.9c-0.2,0.4-0.4,0.9-0.5,1.3c-0.1,0.3-0.2,0.5-0.3,0.9c-0.2,0.5-0.4,1-0.5,1.4c-0.1,0.3-0.2,0.5-0.3,0.9
		c-0.2,0.5-0.4,1.1-0.5,1.6c-0.1,0.2-0.2,0.4-0.2,0.7c-0.2,0.8-0.4,1.6-0.6,2.3c0,0.1,0,0.2-0.1,0.2c-0.2,0.7-0.4,1.4-0.5,2.2
		c-0.1,0.3-0.2,0.5-0.2,0.8c-0.2,0.5-0.2,1.1-0.4,1.6c-0.1,0.3-0.2,0.6-0.2,0.9c-0.1,0.5-0.2,0.9-0.3,1.4c-0.1,0.4-0.2,0.6-0.2,1
		c-0.1,0.4-0.2,0.9-0.2,1.3c-0.1,0.4-0.1,0.7-0.2,1c-0.1,0.4-0.2,0.9-0.2,1.3c-0.1,0.4-0.1,0.7-0.2,1.1s-0.2,0.9-0.2,1.3
		c-0.1,0.4-0.1,0.7-0.2,1.1c-0.1,0.5-0.1,0.9-0.2,1.4c0,0.4-0.1,0.6-0.1,1c-0.1,0.5-0.1,1-0.1,1.5c0,0.3-0.1,0.6-0.1,0.9
		c0,0.5-0.1,1.1-0.1,1.6c0,0.3,0,0.5,0,0.8c0,0.8,0,1.6,0,2.4c0,59.3,51.9,107.5,115.8,107.5c63.8,0,115.8-48.2,115.8-107.5
		c0-0.5,0-1,0-1.5c0-0.2,0-0.3,0-0.4c0-0.4,0-0.7,0-1.1c0-0.2,0-0.4,0-0.5c0-0.4,0-0.7-0.1-1.1c0-0.2,0-0.5,0-0.5l0,0
		c0.1-0.2,0.2-0.3,0.2-0.5c0.2-0.3,0.3-0.6,0.4-0.9c0.2-0.5,0.4-0.9,0.5-1.3c0.2-0.3,0.2-0.6,0.4-0.9c0.2-0.5,0.4-0.9,0.5-1.3
		c0.2-0.3,0.2-0.6,0.4-0.9c0.2-0.5,0.4-0.9,0.5-1.4c0.1-0.3,0.2-0.5,0.3-0.9c0.2-0.5,0.4-1,0.5-1.4c0.1-0.3,0.2-0.5,0.3-0.9
		c0.2-0.5,0.4-1,0.5-1.5c0.1-0.3,0.2-0.5,0.2-0.8c0.2-0.5,0.4-1.2,0.5-1.7c0.1-0.2,0.2-0.4,0.2-0.6c0.2-0.8,0.4-1.6,0.6-2.3
		c0.3-1.1,0.5-2.2,0.8-3.2c0.1-0.4,0.2-0.8,0.3-1.2c0.2-0.8,0.4-1.5,0.5-2.3c0.1-0.2,0.2-0.5,0.2-0.7l24.7,24.7
		c-0.1,0.4-0.1,0.9-0.2,1.3c-0.1,0.4-0.1,0.8-0.2,1.2c-0.1,0.5-0.2,1.2-0.2,1.7c-0.1,0.4-0.1,0.6-0.2,1c-0.1,0.6-0.2,1.3-0.3,2
		c-0.1,0.3-0.1,0.5-0.2,0.8c-0.3,1.9-0.6,3.8-1.1,5.6c0,0.2-0.1,0.2-0.1,0.4c-0.2,0.8-0.4,1.6-0.5,2.4c-0.1,0.3-0.2,0.5-0.2,0.8
		c-0.2,0.6-0.3,1.3-0.5,2c-0.1,0.3-0.2,0.6-0.3,0.9c-0.2,0.5-0.3,1.3-0.5,1.8c-0.1,0.4-0.2,0.7-0.3,1.1c-0.2,0.5-0.3,1.2-0.5,1.6
		c-0.2,0.4-0.2,0.8-0.4,1.2c-0.2,0.5-0.4,1.1-0.5,1.6c-0.2,0.4-0.3,0.8-0.5,1.3s-0.4,1-0.5,1.6c-0.2,0.4-0.3,0.8-0.5,1.3
		s-0.4,1-0.5,1.5c-0.2,0.4-0.3,0.9-0.5,1.3c-0.2,0.5-0.4,1-0.5,1.4s-0.4,0.9-0.5,1.3c-0.2,0.5-0.4,0.9-0.5,1.4
		c-0.2,0.5-0.4,0.9-0.5,1.3c-0.2,0.4-0.4,0.9-0.5,1.4c-0.2,0.4-0.4,0.9-0.5,1.3c-0.2,0.4-0.4,0.9-0.6,1.4c-0.2,0.4-0.5,0.9-0.6,1.3
		s-0.5,0.9-0.6,1.4c-0.2,0.4-0.5,0.9-0.6,1.3s-0.5,0.9-0.6,1.3c-0.2,0.4-0.5,0.9-0.7,1.4c-0.2,0.4-0.5,0.9-0.6,1.3
		c-0.2,0.4-0.5,0.9-0.7,1.3c-0.2,0.5-0.5,0.9-0.7,1.3c-0.3,0.4-0.5,0.9-0.8,1.4c-0.2,0.4-0.4,0.8-0.7,1.3c-0.3,0.4-0.5,0.9-0.8,1.3
		c-0.2,0.5-0.5,0.8-0.7,1.3c-0.3,0.5-0.5,0.9-0.9,1.4c-0.2,0.4-0.5,0.8-0.7,1.2c-0.3,0.5-0.5,0.9-0.9,1.4c-0.2,0.4-0.5,0.8-0.7,1.2
		c-0.3,0.5-0.6,0.9-0.9,1.4c-0.2,0.4-0.5,0.7-0.7,1.1c-0.3,0.5-0.6,0.9-0.9,1.4c-0.2,0.4-0.5,0.7-0.8,1.1c-0.4,0.5-0.6,0.9-1,1.4
		c-0.2,0.4-0.5,0.7-0.8,1.1c-0.4,0.5-0.7,0.9-1.1,1.4c-0.2,0.4-0.5,0.6-0.7,1c-0.4,0.5-0.7,1-1.2,1.5c-0.2,0.2-0.4,0.5-0.5,0.7
		c-0.7,0.9-1.4,1.9-2.3,2.8c-0.4,0.4-0.7,0.9-1,1.3c-0.3,0.4-0.5,0.7-0.9,1.1c-0.4,0.4-0.7,0.9-1.1,1.3l-19.8,19.8
		c-0.5,0.5-1.2,1-1.8,1.5C475.9,210.1,475.6,210.5,475.2,210.8z M484.9,136.3c-0.1,0.2-0.1,0.4-0.2,0.5c-0.2,0.5-0.4,1-0.5,1.5
		c-0.1,0.2-0.2,0.4-0.2,0.7c-0.2,0.4-0.3,0.9-0.5,1.3c-0.1,0.2-0.2,0.5-0.3,0.7c-0.2,0.5-0.4,0.9-0.5,1.4c-0.1,0.2-0.2,0.4-0.3,0.6
		c-0.2,0.5-0.5,1.1-0.7,1.6c-0.1,0.1-0.1,0.2-0.2,0.3c-0.3,0.6-0.5,1.3-0.9,2c-0.1,0.2-0.2,0.4-0.3,0.6c-0.2,0.5-0.5,0.9-0.6,1.3
		c-0.2,0.2-0.2,0.5-0.4,0.7c-0.2,0.4-0.4,0.8-0.5,1.2c-0.2,0.3-0.3,0.5-0.4,0.8c-0.2,0.4-0.5,0.8-0.6,1.2c-0.2,0.2-0.3,0.4-0.4,0.7
		c-0.3,0.5-0.5,1-0.9,1.5c-0.1,0.2-0.2,0.3-0.3,0.4c-0.4,0.5-0.6,1.1-1,1.6c-0.2,0.2-0.3,0.5-0.4,0.6c-0.2,0.4-0.5,0.7-0.7,1.1
		c-0.2,0.2-0.4,0.5-0.5,0.7c-0.2,0.4-0.4,0.7-0.7,1c-0.2,0.2-0.4,0.5-0.5,0.7c-0.2,0.4-0.5,0.7-0.7,1.1c-0.2,0.2-0.4,0.5-0.5,0.6
		c-0.4,0.5-0.7,0.9-1.1,1.4c-0.2,0.2-0.3,0.4-0.5,0.5c-0.4,0.4-0.6,0.9-1,1.3c-0.2,0.2-0.4,0.4-0.5,0.6c-0.3,0.4-0.5,0.6-0.8,1
		c-0.2,0.2-0.5,0.5-0.5,0.7c-0.3,0.3-0.5,0.6-0.8,0.9c-0.2,0.2-0.5,0.4-0.6,0.7c-0.3,0.3-0.5,0.6-0.9,0.9c-0.2,0.2-0.4,0.4-0.5,0.6
		c-0.5,0.5-0.9,1-1.4,1.4c-0.2,0.2-0.3,0.3-0.5,0.4c-0.4,0.4-0.7,0.7-1.1,1.1c-0.2,0.2-0.4,0.4-0.6,0.6c-0.3,0.3-0.5,0.5-0.9,0.9
		c-0.2,0.2-0.5,0.4-0.7,0.6c-0.3,0.3-0.6,0.5-0.9,0.8c-0.2,0.2-0.5,0.4-0.7,0.6c-0.4,0.3-0.6,0.5-1,0.9c-0.2,0.2-0.5,0.4-0.6,0.5
		c-0.5,0.4-1.1,0.9-1.6,1.3c-0.2,0.2-0.4,0.3-0.5,0.4c-0.5,0.3-0.8,0.6-1.3,0.9c-0.2,0.2-0.5,0.4-0.7,0.5c-0.4,0.3-0.7,0.5-1.1,0.8
		c-0.2,0.2-0.5,0.4-0.7,0.5c-0.4,0.2-0.7,0.5-1.1,0.7c-0.2,0.2-0.5,0.4-0.7,0.5c-0.4,0.3-0.8,0.5-1.3,0.8c-0.2,0.2-0.5,0.3-0.6,0.4
		c-0.5,0.4-1.3,0.8-1.8,1.2c-0.2,0.2-0.4,0.2-0.5,0.4c-0.4,0.3-0.9,0.5-1.3,0.8c-0.2,0.2-0.5,0.3-0.7,0.4c-0.4,0.2-0.8,0.4-1.2,0.6
		c-0.3,0.2-0.5,0.3-0.8,0.4c-0.4,0.2-0.8,0.4-1.3,0.6c-0.3,0.2-0.5,0.3-0.8,0.5c-0.5,0.2-0.9,0.5-1.4,0.7c-0.2,0.1-0.4,0.2-0.5,0.3
		c-0.6,0.3-1.3,0.6-2,0.9c-0.2,0.1-0.5,0.2-0.5,0.3c-0.5,0.2-0.9,0.4-1.4,0.6c-0.3,0.2-0.5,0.2-0.8,0.4c-0.4,0.2-0.9,0.4-1.3,0.5
		c-0.3,0.2-0.5,0.2-0.8,0.4c-0.5,0.2-0.9,0.4-1.3,0.5c-0.3,0.1-0.5,0.2-0.8,0.3c-0.5,0.2-1.1,0.4-1.6,0.5c-0.2,0.1-0.4,0.2-0.5,0.2
		c-0.7,0.3-1.4,0.5-2.1,0.7c-0.2,0.1-0.4,0.2-0.6,0.2c-0.5,0.2-1,0.4-1.5,0.5c-0.3,0.1-0.5,0.2-0.8,0.2c-0.5,0.2-0.9,0.3-1.4,0.4
		c-0.3,0.1-0.5,0.2-0.9,0.2c-0.5,0.2-0.9,0.3-1.4,0.4c-0.3,0.1-0.5,0.2-0.8,0.2c-0.5,0.2-1.3,0.3-1.8,0.4c-0.2,0-0.3,0.1-0.4,0.1
		c-0.7,0.2-1.5,0.4-2.3,0.5c-0.2,0.1-0.4,0.1-0.6,0.2c-0.5,0.2-1.1,0.2-1.6,0.3c-0.3,0.1-0.5,0.1-0.9,0.2c-0.5,0.1-1,0.2-1.5,0.3
		c-0.3,0.1-0.5,0.1-0.9,0.2c-0.5,0.1-1,0.2-1.6,0.2c-0.3,0.1-0.5,0.1-0.8,0.2c-0.7,0.1-1.4,0.2-2.1,0.3c-0.1,0-0.2,0-0.2,0
		c-0.8,0.1-1.6,0.2-2.3,0.2c-0.2,0-0.5,0.1-0.7,0.1c-0.5,0.1-1.1,0.1-1.6,0.2c-0.3,0-0.5,0.1-0.9,0.1c-0.5,0-1,0.1-1.6,0.1
		c-0.3,0-0.5,0-0.9,0.1c-0.5,0-1.1,0.1-1.6,0.1c-0.3,0-0.5,0-0.8,0c-0.8,0-1.6,0-2.3,0c-55.8,0-101.2-41.7-101.2-93
		c0-0.8,0-1.5,0-2.3c0-0.2,0-0.5,0-0.7c0-0.5,0.1-1.1,0.1-1.6c0-0.3,0-0.5,0.1-0.8c0-0.5,0.1-1,0.2-1.5c0-0.3,0.1-0.5,0.1-0.8
		c0.1-0.6,0.2-1.3,0.2-1.9c0-0.2,0-0.3,0.1-0.5c0.1-0.7,0.2-1.5,0.3-2.3c0-0.2,0.1-0.4,0.1-0.6c0.1-0.5,0.2-1.1,0.3-1.6
		c0.1-0.3,0.1-0.5,0.2-0.8c0.1-0.5,0.2-1,0.3-1.5c0.1-0.3,0.1-0.5,0.2-0.8c0.2-0.5,0.2-1.1,0.4-1.6c0.1-0.2,0.1-0.4,0.2-0.5
		c0.2-0.7,0.4-1.4,0.5-2.2c0.1-0.2,0.1-0.3,0.2-0.4c0.2-0.5,0.3-1.2,0.5-1.7c0.1-0.2,0.2-0.5,0.2-0.7c0.2-0.5,0.3-0.9,0.4-1.4
		c0.1-0.3,0.2-0.5,0.2-0.8c0.2-0.5,0.4-1,0.5-1.5c0.1-0.2,0.2-0.4,0.2-0.6c0.3-0.7,0.5-1.4,0.8-2.1c0-0.1,0.1-0.2,0.1-0.2
		c0.2-0.6,0.5-1.3,0.8-1.9c0.1-0.2,0.2-0.5,0.3-0.7c0.2-0.4,0.5-0.9,0.5-1.3c0.2-0.3,0.2-0.5,0.4-0.8c0.2-0.4,0.4-0.9,0.6-1.3
		c0.1-0.2,0.2-0.4,0.2-0.5c2.6,49,33.2,91.1,78.3,103.1c41,10.9,84-5.5,111.5-39.9C484.9,136.3,484.9,136.3,484.9,136.3z
		 M540.3,146.1c0.1-0.2,0.2-0.5,0.3-0.7c0.3-0.8,0.6-1.6,0.9-2.4c0.2-0.4,0.3-0.8,0.5-1.3c0.2-0.7,0.5-1.3,0.7-2.1
		c0.2-0.5,0.3-0.9,0.5-1.4c0.2-0.6,0.4-1.3,0.6-2c0.2-0.4,0.3-0.9,0.5-1.4c0.2-0.6,0.4-1.3,0.5-2c0.2-0.4,0.3-0.9,0.4-1.3
		c0.2-0.7,0.4-1.4,0.5-2.1c0.2-0.4,0.2-0.8,0.4-1.3c0.2-0.8,0.5-1.6,0.6-2.4c0.1-0.3,0.2-0.5,0.2-0.9c0.3-1.1,0.5-2.3,0.7-3.3
		c0.1-0.3,0.2-0.6,0.2-0.9c0.2-0.8,0.4-1.6,0.5-2.3c0-0.1,0.1-0.2,0.1-0.3l10,10L540.3,146.1z M498.3,67.8c0,0.2-0.1,0.3-0.1,0.4
		c-0.2,1.3-0.3,2.3-0.5,3.6c0,0.1,0,0.2,0,0.2c-0.2,1.2-0.4,2.3-0.5,3.5c0,0.2-0.1,0.4-0.1,0.5c-2.4-6.6-5.5-12.8-9.2-18.7
		L498.3,67.8z M488.4,103.1c-20.9,45.8-67.3,70.6-111.1,58.9c-45.3-12-73.7-59.6-66.7-111.4c19.3-20.7,47.2-32.5,76.9-32.5
		C440,18.1,484,55.2,488.4,103.1z M387.5,3.5c-13.6,0-26.9,2.2-39.3,6.4l0,0c1.3-0.6,2.5-1.3,3.8-2c0.4-0.2,0.7-0.4,1.1-0.5
		c1.1-0.5,2.2-1.1,3.2-1.6c0.2-0.2,0.5-0.2,0.7-0.4c1.3-0.5,2.6-1.2,3.9-1.7c0.4-0.2,0.6-0.3,1-0.4c1.1-0.5,2.1-0.9,3.2-1.3
		c0.3-0.2,0.6-0.3,0.9-0.4c1.3-0.5,2.6-1,3.9-1.5c0.3-0.1,0.5-0.2,0.9-0.3c1.1-0.4,2.2-0.8,3.2-1.2c0.4-0.2,0.7-0.2,1.1-0.4
		c1.3-0.4,2.7-0.9,4-1.3c0.2-0.1,0.3-0.1,0.5-0.2c1.3-0.4,2.3-0.7,3.6-1.1c0.4-0.1,0.7-0.2,1.1-0.3c1.3-0.4,2.4-0.6,3.8-1
		c0.2,0,0.2-0.1,0.4-0.1c1.4-0.4,2.7-0.6,4-0.9c0.4-0.1,0.7-0.2,1.1-0.2c1.2-0.2,2.3-0.5,3.4-0.7c0.3-0.1,0.5-0.1,0.8-0.2
		c1.4-0.2,2.7-0.5,4-0.7c0.3-0.1,0.6-0.1,0.9-0.2c1.1-0.2,2.2-0.4,3.3-0.5c0.4-0.1,0.6-0.1,1-0.2c1.4-0.2,2.7-0.4,4-0.4
		c0.3,0,0.5-0.1,0.8-0.1c1.2-0.1,2.3-0.2,3.4-0.3c0.4,0,0.7-0.1,1.1-0.1c1.4-0.1,2.7-0.2,4-0.2h0.1L452.6,22
		C434,10.4,411.5,3.5,387.5,3.5z M406.5-23.6c-1.5,0.2-3.1,0.4-4.6,0.5c-0.3,0.1-0.5,0.1-0.9,0.2c-1.3,0.2-2.7,0.4-4,0.6
		c-0.3,0.1-0.6,0.2-0.9,0.2c-1.5,0.3-3.1,0.5-4.5,0.9c-0.4,0.1-0.6,0.2-1,0.2c-1.3,0.3-2.6,0.5-3.9,0.9c-0.3,0.1-0.6,0.2-0.9,0.2
		c-1.5,0.4-3.1,0.7-4.5,1.2c-0.4,0.1-0.6,0.2-1,0.3c-1.3,0.4-2.6,0.7-3.9,1.1c-0.3,0.1-0.5,0.2-0.9,0.3c-1.5,0.4-3,0.9-4.5,1.4
		c-0.4,0.2-0.7,0.2-1.1,0.4c-1.3,0.4-2.5,0.9-3.8,1.3c-0.3,0.1-0.5,0.2-0.9,0.3c-1.4,0.5-3,1.1-4.4,1.6c-0.4,0.2-0.7,0.3-1.1,0.4
		c-1.3,0.5-2.5,1-3.8,1.6c-0.3,0.2-0.5,0.2-0.8,0.4c-1.4,0.6-2.9,1.3-4.3,2c-0.4,0.2-0.7,0.4-1.1,0.5c-1.3,0.5-2.5,1.3-3.8,1.8
		c-0.2,0.2-0.5,0.2-0.7,0.4c-1.4,0.7-2.9,1.4-4.2,2.2c-0.4,0.2-0.6,0.4-1,0.5c-1.3,0.6-2.5,1.3-3.8,2.1c-0.2,0.2-0.4,0.2-0.6,0.4
		c-1.4,0.8-2.8,1.6-4.1,2.4c-0.4,0.2-0.6,0.4-1,0.5c-1.3,0.8-2.5,1.6-3.8,2.3c-0.2,0.1-0.2,0.2-0.4,0.2c0.3-0.4,0.5-0.9,0.8-1.3
		c0.2-0.2,0.2-0.5,0.4-0.5c0.5-0.9,1.2-1.8,1.7-2.7c0.2-0.2,0.2-0.4,0.4-0.5c0.5-0.7,1-1.4,1.5-2.2c0.2-0.2,0.4-0.5,0.5-0.7
		c0.5-0.7,1.1-1.5,1.6-2.2c0.1-0.2,0.2-0.2,0.2-0.4c0.6-0.9,1.3-1.6,2-2.5c0.2-0.2,0.3-0.4,0.5-0.5c0.5-0.6,1.1-1.3,1.6-2
		c0.2-0.2,0.4-0.4,0.5-0.5c1.4-1.6,2.8-3.1,4.3-4.7c0.2-0.2,0.4-0.4,0.5-0.5c0.5-0.5,1.3-1.3,1.8-1.8c0.2-0.2,0.4-0.4,0.5-0.5
		c0.8-0.7,1.5-1.4,2.3-2.2c0.1-0.1,0.2-0.1,0.2-0.2c0.7-0.6,1.4-1.3,2.2-1.9c0.2-0.2,0.4-0.4,0.5-0.5c0.6-0.5,1.4-1.1,2-1.6
		c0.2-0.2,0.3-0.2,0.4-0.4c0.8-0.6,1.6-1.3,2.5-1.9c0.2-0.1,0.3-0.2,0.5-0.3c0.7-0.5,1.4-1,2.2-1.5c0.2-0.2,0.4-0.3,0.6-0.4
		c0.8-0.5,1.6-1,2.3-1.5c0.1-0.1,0.2-0.2,0.3-0.2c0.9-0.5,1.8-1.1,2.7-1.6c0.2-0.2,0.4-0.2,0.5-0.4c0.7-0.5,1.4-0.8,2.2-1.3
		c0.2-0.2,0.5-0.2,0.6-0.4c1.8-0.9,3.7-1.9,5.6-2.7c0.2-0.2,0.5-0.2,0.7-0.3c0.7-0.4,1.4-0.6,2.3-0.9c0.2-0.1,0.4-0.2,0.7-0.3
		c0.9-0.4,1.9-0.7,2.9-1.1c0.2-0.1,0.2-0.1,0.4-0.2c0.9-0.3,1.6-0.5,2.5-0.9c0.3-0.1,0.5-0.2,0.9-0.3c0.8-0.2,1.5-0.5,2.3-0.7
		c0.2-0.1,0.5-0.2,0.6-0.2c0.9-0.2,1.8-0.5,2.7-0.7L407.1-24C406.6-23.6,406.5-23.6,406.5-23.6z M372-58.3l4.8,4.8
		c-0.8,0.3-1.6,0.5-2.3,0.8c-0.2,0.1-0.2,0.1-0.4,0.2c-1,0.4-2.1,0.8-3.1,1.2c-0.2,0.1-0.3,0.2-0.5,0.2c-1,0.5-2.1,0.9-3.1,1.3
		c-0.2,0.1-0.5,0.2-0.6,0.3c-1,0.5-2,0.9-3.1,1.4c-0.2,0.1-0.4,0.2-0.5,0.3c-0.9,0.5-2,0.9-2.9,1.4c-0.2,0.1-0.3,0.1-0.4,0.2
		c0,0,0,0-0.1,0L372-58.3z M185.5,128.1L311.4,2.2c-0.2,0.3-0.3,0.5-0.5,0.8s-0.4,0.6-0.5,0.9c-0.5,0.9-0.9,1.8-1.4,2.7
		c-0.2,0.2-0.2,0.4-0.4,0.6c-0.5,1.1-1.1,2.3-1.6,3.3c-0.2,0.3-0.2,0.5-0.4,0.9c-0.4,0.9-0.8,1.7-1.2,2.6c-0.2,0.4-0.3,0.7-0.5,1
		c-0.4,1-0.8,2-1.3,3.1c-0.1,0.1-0.2,0.2-0.2,0.4c-0.4,1.2-0.9,2.3-1.3,3.5c-0.2,0.4-0.2,0.6-0.4,1c-0.2,0.5-0.3,0.9-0.5,1.4l0,0
		l0,0c-0.3,0.2-0.5,0.5-0.9,0.8s-0.6,0.5-1,0.9c-0.6,0.5-1.3,1.2-1.9,1.7c-0.3,0.3-0.5,0.5-0.9,0.8c-0.9,0.8-1.7,1.6-2.6,2.4
		c0,0,0,0-0.1,0c-0.9,0.9-1.7,1.7-2.6,2.5c-0.2,0.2-0.5,0.5-0.7,0.7c-0.5,0.5-1.3,1.3-1.8,1.8c-0.3,0.3-0.5,0.5-0.9,0.9
		c-0.5,0.5-1.1,1.2-1.6,1.7c-0.3,0.3-0.5,0.5-0.9,0.9c-0.5,0.6-1.2,1.3-1.7,1.9c-0.2,0.2-0.5,0.5-0.6,0.7c-1.6,1.8-3.1,3.6-4.6,5.4
		c-0.2,0.2-0.5,0.5-0.5,0.7c-0.5,0.6-1.1,1.3-1.6,2c-0.2,0.3-0.5,0.5-0.7,0.9c-0.5,0.6-1,1.3-1.4,2c-0.2,0.3-0.4,0.5-0.6,0.9
		c-0.5,0.7-1,1.4-1.6,2.1c-0.2,0.2-0.4,0.5-0.5,0.6c-1.3,1.9-2.7,3.8-4,5.7c-0.2,0.2-0.3,0.5-0.5,0.7c-0.5,0.7-0.9,1.4-1.3,2.2
		c-0.2,0.3-0.4,0.5-0.5,0.9c-0.5,0.7-0.9,1.3-1.3,2.1c-0.2,0.3-0.4,0.5-0.5,0.9c-0.5,0.8-0.9,1.6-1.4,2.3c-0.2,0.2-0.2,0.4-0.4,0.5
		c-1.2,2-2.3,4-3.3,6c-0.2,0.2-0.2,0.5-0.4,0.6c-0.5,0.8-0.8,1.5-1.2,2.3c-0.2,0.3-0.3,0.5-0.5,0.9c-0.4,0.7-0.7,1.5-1.1,2.3
		c-0.2,0.3-0.2,0.5-0.4,0.8c-0.4,0.9-0.8,1.7-1.2,2.5c-0.1,0.2-0.2,0.3-0.2,0.5c-0.9,2-1.8,4.1-2.6,6.1c-0.1,0.2-0.2,0.5-0.3,0.6
		c-0.3,0.8-0.6,1.6-0.9,2.3c-0.1,0.3-0.2,0.5-0.3,0.8c-0.3,0.8-0.5,1.6-0.9,2.3c-0.1,0.2-0.2,0.5-0.3,0.7c-0.3,0.9-0.6,1.8-0.9,2.7
		c0,0.1-0.1,0.2-0.1,0.3c-0.6,2.1-1.3,4.1-1.9,6.3c-0.1,0.2-0.2,0.4-0.2,0.6c-0.2,0.8-0.4,1.6-0.6,2.4c-0.1,0.3-0.2,0.5-0.2,0.8
		c-0.2,0.8-0.4,1.6-0.5,2.3c-0.1,0.2-0.2,0.5-0.2,0.7c-0.2,0.9-0.4,1.9-0.6,2.8c0,0.1-0.1,0.2-0.1,0.3c-0.4,2.1-0.8,4.1-1.2,6.3
		c-0.1,0.2-0.1,0.4-0.1,0.6c-0.2,0.8-0.2,1.6-0.4,2.3c-0.1,0.3-0.1,0.5-0.2,0.8c-0.1,0.8-0.2,1.6-0.3,2.3c0,0.2-0.1,0.5-0.1,0.7
		c-0.1,0.9-0.2,1.9-0.3,2.8c0,0.1,0,0.2,0,0.2c-0.1,1.1-0.2,2.1-0.3,3.1c0,0.1,0,0.2,0,0.2c-0.1,0.9-0.2,1.9-0.2,2.9
		c0,0.2,0,0.5,0,0.7c0,0.8-0.1,1.5-0.1,2.3c0,0.3,0,0.5,0,0.9c0,0.8,0,1.5,0,2.3c0,0.3,0,0.5,0,0.8c0,0.9,0,1.8,0.1,2.7
		c0,0.1,0,0.2,0,0.3c0,1,0.1,2.1,0.2,3.1c0,0.2,0,0.3,0,0.4c0.1,0.9,0.1,1.7,0.2,2.6c0,0.3,0.1,0.5,0.1,0.9c0.1,0.7,0.2,1.4,0.2,2.2
		c0,0.3,0.1,0.6,0.1,0.9c0.1,0.7,0.2,1.4,0.2,2.1c0.1,0.3,0.1,0.5,0.2,0.9c0.2,0.9,0.2,1.6,0.4,2.5c0,0.2,0.1,0.3,0.1,0.5
		c0.2,1,0.4,2,0.5,3c0.1,0.2,0.1,0.4,0.2,0.6c0.2,0.7,0.3,1.5,0.4,2.3c0.1,0.3,0.2,0.6,0.2,0.9c0.2,0.6,0.3,1.3,0.5,2
		c0.1,0.4,0.2,0.6,0.2,1c0.2,0.6,0.3,1.3,0.5,1.9c0.1,0.3,0.2,0.6,0.3,0.9c0.2,0.8,0.4,1.5,0.6,2.3c0.1,0.2,0.1,0.4,0.2,0.5
		c0.3,0.9,0.5,1.9,0.9,2.7c0.1,0.3,0.2,0.5,0.3,0.8c0.2,0.5,0.4,1,0.5,1.5L185.5,128.1z M372,314.5l-56.1-56.1
		c0.9,0.4,1.9,0.6,2.8,1c0.3,0.1,0.5,0.2,0.8,0.3c0.7,0.2,1.5,0.5,2.3,0.7c0.3,0.1,0.6,0.2,0.9,0.3c0.8,0.2,1.6,0.5,2.4,0.7
		c0.2,0.1,0.4,0.2,0.5,0.2c1,0.3,2,0.5,3.1,0.8c0.3,0.1,0.6,0.2,0.9,0.2c0.7,0.2,1.4,0.4,2.3,0.5c0.4,0.1,0.7,0.2,1.1,0.2
		c0.9,0.2,1.7,0.4,2.6,0.5c0.2,0.1,0.4,0.1,0.5,0.2c1,0.2,2.1,0.4,3.1,0.5c0.4,0.1,0.6,0.2,1,0.2c0.8,0.2,1.5,0.2,2.3,0.4
		c0.4,0.1,0.7,0.1,1.1,0.2c0.9,0.2,2,0.3,2.9,0.4c0.2,0,0.2,0,0.4,0.1c1.1,0.2,2.2,0.2,3.2,0.4c0.4,0,0.6,0.1,1,0.1
		c0.8,0.1,1.6,0.2,2.4,0.2c0.4,0,0.6,0.1,1,0.1c1.2,0.1,2.3,0.2,3.4,0.2c1.4,0.1,2.8,0.1,4.1,0.2c0.5,0,1.3,0,1.8,0s0.9,0,1.4,0
		c0.3,0,0.6,0,0.9,0c0.6,0,1.3,0,2,0s1.5-0.1,2.3-0.1c1.2-0.1,2.3-0.1,3.4-0.2c0.7-0.1,1.4-0.1,2.2-0.2c0.8-0.1,1.6-0.2,2.3-0.2
		c0.5-0.1,1.3-0.1,1.8-0.2c0.8-0.1,1.6-0.2,2.3-0.2c0.5-0.1,1.2-0.2,1.8-0.2c1.3-0.2,2.7-0.3,4-0.5c0.6-0.1,1.3-0.2,2-0.3
		c0.7-0.2,1.5-0.2,2.3-0.4c0.6-0.2,1.3-0.2,2-0.4c0.7-0.2,1.4-0.2,2.1-0.4c0.9-0.2,1.7-0.4,2.7-0.5c0.9-0.2,1.6-0.4,2.5-0.5
		c0.9-0.2,1.9-0.5,2.9-0.6c0.5-0.2,1.2-0.3,1.7-0.5c0.9-0.2,1.8-0.4,2.7-0.7c0.5-0.2,1-0.3,1.5-0.5c1.4-0.4,2.7-0.8,4.1-1.2
		c0.2-0.1,0.4-0.2,0.5-0.2c1.3-0.4,2.4-0.8,3.7-1.2c0.4-0.2,0.8-0.3,1.2-0.4c1.2-0.4,2.3-0.8,3.4-1.2c0.3-0.1,0.5-0.2,0.9-0.3
		c1.4-0.5,2.9-1.1,4.3-1.6c0.1-0.1,0.2-0.1,0.3-0.2c1.3-0.5,2.6-1,3.9-1.6c0.2-0.1,0.3-0.2,0.5-0.2L372,314.5z"/>
	<circle class="st0" cx="444.6" cy="81.5" r="8.7"/>
	<circle class="st0" cx="354.5" cy="81.5" r="8.7"/>
</g>
</svg>
