<?xml version="1.0" encoding="utf-8"?>
<!-- Generator: Adobe Illustrator 19.0.0, SVG Export Plug-In . SVG Version: 6.00 Build 0)  -->
<svg version="1.1" id="Layer_1" xmlns="http://www.w3.org/2000/svg" xmlns:xlink="http://www.w3.org/1999/xlink" x="0px" y="0px"
	 viewBox="-95 96 65 65" style="enable-background:new -95 96 65 65;" xml:space="preserve">
<style type="text/css">
	.st0{fill:#0088BE;}
	.st1{fill:#4AAD82;}
</style>
<g id="XMLID_6_">
	<path id="XMLID_4_" class="st0" d="M-49.6,139.1c-3.3,1.9-6,3.9-11.4,3.4c-15.8-1.6-18.1-20-8.9-26.4c7.9-5.3,16.6-2.1,19.8,5.4
		c3,7.2-0.6,13.9-6.9,15.5c-1.7,0.4-3.3,0.3-5.3-0.1c1.5-0.5,4.4-1.2,4.8-4.4c0.7-6.1-4.4-6.3-4.2-11c0.2-2.9,2.2-4,3.9-4.4
		c-4.4-2.3-12.7-0.5-14.5,7.5c-2.7,15.7,17.8,21.7,24.6,7.8c2.9-6,0.5-13-4-17.6c-8.1-8.1-27.6-3.3-25.9,14.1
		C-75.9,144.8-57.5,148.2-49.6,139.1L-49.6,139.1z"/>
	<path id="XMLID_3_" class="st1" d="M-87.5,129.7c-0.4,12.7,11,24.7,25.3,24.6c13.5-0.1,25.3-11.8,24.6-25.3
		c-1.1,6.8-3.7,11.8-7.7,15.3c-10,9-24.2,9.1-33.7,0.6c-1.8-1.6-3.7-3.7-5.2-6.4C-86.7,134.3-86.5,131.7-87.5,129.7L-87.5,129.7z"/>
	<path id="XMLID_2_" class="st1" d="M-74.9,144.6c-0.8-1.2-2.3-2.2-4.3-5.8c-4.5-7.9-3.5-17.4,1.2-24.3c4.5-6.6,12.5-10.6,21.2-9.8
		c3.5,0.4,5.2,1.3,8.1,2.2c-7.1-6.6-24.2-5.9-32,5.8c-3.3,4.8-5.2,11.2-3.5,18.4C-83,136.8-78.8,142.6-74.9,144.6L-74.9,144.6z"/>
	<path id="XMLID_1_" class="st1" d="M-66.3,108.8c5.8-0.4,8.7-1.1,13.5,1.7c7.7,4.3,11.8,13.2,8.9,22c-1,3-2.6,5.6-4.6,7.5l-2,1.9
		c0,0.1-0.1,0.1-0.2,0.2c7.1-2,13.7-14,8.8-24.4c-1.9-4-5.2-7.3-9.2-9C-55.5,106.8-62.6,106.3-66.3,108.8L-66.3,108.8z"/>
</g>
</svg>
