<?xml version="1.0" encoding="utf-8"?>
<!-- Generator: Adobe Illustrator 19.0.0, SVG Export Plug-In . SVG Version: 6.00 Build 0)  -->
<svg version="1.1" id="Layer_1" xmlns="http://www.w3.org/2000/svg" xmlns:xlink="http://www.w3.org/1999/xlink" x="0px" y="0px"
	 viewBox="122 -122 500 500" style="enable-background:new 122 -122 500 500;" xml:space="preserve">
<style type="text/css">
	.st0{fill:#D60000;}
</style>
<g id="XMLID_7_">
	<path id="XMLID_5_" d="M372.1,160.6c2.9,21.1,18.2,30.4,33.1,33.7c17.1,3.9,38.9,0.4,55.2-4c18-4.8,29.1-11.4,51-11.7
		c17.2-0.2,34.3,3.3,46.9,17.4l22.7-19.4c-2.7-3.3-14.4-8-19-9.7c-23.2-8.3-50.3-5.2-71.9,4.3c-22.3,9.9-63.7,29.9-88.2,12.2
		c-18.6-13.2-21.5-45.8,8.7-54.8c8.9-2.7,16.1-0.2,21.7,4.8c10.2,9.9,8.9,32.4-9.3,39.6c-8.9,3.5-15.9-6-16.2-11.7
		c-0.2-5,2.7-8.9,4.8-10.9c4.8-3.9,6.4-2.7,9.5-3.5l1.3-0.5c-29.4-9.9-31.9,22.3-14.4,29.6c13.7,5.7,39.1,0,43.4-21.7
		c4.8-24.6-20.2-32.4-37.8-31.4c-14.4,1-31.8,5.4-39.3,21.1C371.7,149.7,372.1,154.6,372.1,160.6L372.1,160.6z"/>
	<path id="XMLID_4_" d="M372.1,160.6c-2.9,21.1-18.2,30.4-33.1,33.7c-17.2,3.9-39.1,0.4-55.5-4c-17.9-4.8-28.9-11.4-51-11.7
		c-17.1-0.2-34.1,3.3-46.7,17.4L163,176.6c2.9-3.3,14.4-8,19.2-9.7c23.2-8.3,50.3-5.2,71.7,4.3c22.4,9.9,64,29.9,88.4,12.2
		c18.6-13.2,21.5-45.8-8.7-54.8c-8.9-2.7-16.2-0.2-21.7,4.8c-10.5,9.9-9.1,32.4,9.3,39.6c8.9,3.5,15.9-6,16.1-11.7
		c0.4-5-2.5-8.9-4.8-10.9c-4.7-3.9-6.4-2.7-9.3-3.5l-1.5-0.5c29.4-9.9,31.9,22.3,14.5,29.6c-13.9,5.7-39.1,0-43.4-21.7
		c-4.8-24.6,19.9-32.4,37.6-31.4c14.5,1,31.9,5.4,39.6,21.1C372.4,149.7,372.1,154.6,372.1,160.6L372.1,160.6z"/>
	<polygon id="XMLID_3_" points="372.1,60 398.5,86.5 372.1,113.1 345.5,86.5 	"/>
	
		<rect id="XMLID_2_" x="406.2" y="67.8" transform="matrix(0.7071 -0.7071 0.7071 0.7071 63.2968 325.8531)" class="st0" width="37.5" height="37.5"/>
	<polygon id="XMLID_1_" class="st0" points="319,60 292.7,86.5 319,113.1 345.5,86.5 	"/>
</g>
</svg>
