<?xml version="1.0" encoding="utf-8"?>
<!-- Generator: Adobe Illustrator 19.0.0, SVG Export Plug-In . SVG Version: 6.00 Build 0)  -->
<svg version="1.1" id="Layer_1" xmlns="http://www.w3.org/2000/svg" xmlns:xlink="http://www.w3.org/1999/xlink" x="0px" y="0px"
	 viewBox="170 -169.3 595.3 595.3" style="enable-background:new 170 -169.3 595.3 595.3;" xml:space="preserve">
<path d="M633.2,78.3c-10.6-24.4-30.8-42.5-30.8-42.5L570.5,5c0,0,25.3-3.1,29-26.5c-14.7,16.2-38.2,18-38.2,18l-5.6-5.7
	c0,0,45.1-2.1,47.5-32.1C568.2-15.6,541.6-24,541.6-24l-75-71.9l-60.7,61.8h37.6l21,14.2H330.7c0,0-7.8-1.2-11.9,2.5
	c-5.3,4.9-6.2,10-6.2,10l-15.2,87.7l83.6-66.6L503.5-1.8L514,6.1L383.3,26l-89,73.3v207.8h94.2c0,0,49.6,1.3,79.6,45.4
	c27.9-44.1,77.6-42.8,77.6-42.8H641V133.7C641.1,133.7,639.9,93.7,633.2,78.3z M612.6,275.2h-66.9c0,0-49.7-1.3-77.6,34.7
	c-30-36-79.6-37.3-79.6-37.3h-68.5V115.9L392,42.6L525.8,12c0,0,48.6,34.5,66.2,57.2c15.2,19.3,20.6,44.4,20.6,44.4V275.2z"/>
</svg>
